<svg xmlns="http://www.w3.org/2000/svg" xmlns:xlink="http://www.w3.org/1999/xlink" width="175" height="180" viewBox="0 0 175 180">
    <defs>
        <linearGradient id="a" x1="50%" x2="50%" y1="0%" y2="100%">
            <stop offset="0%" stop-color="#836CB4"/>
            <stop offset="100%" stop-color="#6C8AB4"/>
        </linearGradient>
        <rect id="b" width="2260" height="1300" rx="16"/>
        <filter id="c" width="103.8%" height="106.7%" x="-1.5%" y="-2.7%" filterUnits="objectBoundingBox">
            <feOffset dx="9" dy="9" in="SourceAlpha" result="shadowOffsetOuter1"/>
            <feGaussianBlur in="shadowOffsetOuter1" result="shadowBlurOuter1" stdDeviation="13"/>
            <feColorMatrix in="shadowBlurOuter1" values="0 0 0 0 0 0 0 0 0 0 0 0 0 0 0 0 0 0 0.2 0"/>
        </filter>
    </defs>
    <g fill="none" fill-rule="evenodd">
        <path fill="url(#a)" d="M0 0h2800v1810H0z" transform="translate(-541 -502)"/>
        <g transform="translate(-201 -248)">
            <mask id="d" fill="#fff">
                <use xlink:href="#b"/>
            </mask>
            <use fill="#000" filter="url(#c)" xlink:href="#b"/>
            <rect width="2260" height="1300" fill="#FFF" mask="url(#d)" rx="16"/>
        </g>
        <g transform="translate(25 18)">
            <circle cx="96.562" cy="76.334" r="28.656" fill="#53146C"/>
            <circle cx="28.656" cy="76.334" r="28.656" fill="#53146C"/>
            <g transform="translate(7.706 65.498)">
                <circle cx="95.839" cy="12.522" r="12.522" fill="#CA9D52"/>
                <circle cx="95.599" cy="12.281" r="8.91" fill="#EEBA64"/>
                <circle cx="12.522" cy="13.485" r="12.522" fill="#C59A52" fill-opacity=".96"/>
                <circle cx="12.763" cy="13.244" r="8.91" fill="#EEBA64"/>
            </g>
            <rect width="81.391" height="116.067" x="21.191" y="27.933" fill="#EEBA64" rx="40.696"/>
            <circle cx="36.843" cy="38.288" r="28.656" fill="#53146C"/>
            <circle cx="59.96" cy="28.656" r="28.656" fill="#53146C"/>
            <circle cx="87.411" cy="40.214" r="28.656" fill="#53146C"/>
            <circle cx="42.14" cy="80.187" r="4.575" fill="#53146C"/>
            <circle cx="79.706" cy="80.187" r="4.575" fill="#53146C"/>
            <path fill="#CA9D52" d="M61.284 70.796c3.79 0 6.863 3.07 6.863 6.865v21.95c0 3.037-3.08 5.5-6.863 5.5a6.864 6.864 0 0 1-6.863-6.862V77.658c0-3.79 3.08-6.862 6.863-6.862z"/>
            <ellipse cx="11.318" cy="53.699" fill="#53146C" rx="8.91" ry="9.391"/>
            <ellipse cx="112.455" cy="53.699" fill="#53146C" rx="8.91" ry="9.391"/>
            <path fill="#EC4568" d="M76.83 106.094c1.785-2.58 4.729-2.613 5.37-1.73 0 0 2.647.922.721 6.22-1.926 5.297-7.947 10.221-11.077 12.04-3.13 1.819-6.26 3.371-11.077 3.371-4.816 0-6.23-2.498-6.23-2.498-1.097-1.508.493-3.3 3.555-4.046 0 0 8.213-1.707 10.862-3.57 2.65-1.862 7.877-9.787 7.877-9.787z"/>
        </g>
    </g>
</svg>
