<svg xmlns="http://www.w3.org/2000/svg" width="66" height="66" viewBox="0 0 66 66">
    <g fill="none" fill-rule="evenodd">
        <path fill="#DDE2E5" d="M63 33c0 16.568-13.431 30-30 30C16.432 63 3 49.568 3 33 3 16.432 16.432 3 33 3c16.569 0 30 13.432 30 30"/>
        <g transform="translate(11 8)">
            <circle cx="34" cy="27" r="10" fill="#747B7E"/>
            <circle cx="10" cy="27" r="10" fill="#747B7E"/>
            <g transform="translate(3 23)">
                <circle cx="33.5" cy="4.5" r="4.5" fill="#959EA3"/>
                <circle cx="33" cy="4" r="3" fill="#B8C2C7"/>
                <circle cx="4.5" cy="4.5" r="4.5" fill="#959EA3"/>
                <circle cx="4" cy="5" r="3" fill="#B8C2C7"/>
            </g>
            <rect width="29" height="40" x="7" y="10" fill="#B8C2C7" rx="14.5"/>
            <circle cx="13" cy="13" r="10" fill="#747B7E"/>
            <circle cx="21" cy="10" r="10" fill="#747B7E"/>
            <circle cx="31" cy="14" r="10" fill="#747B7E"/>
            <circle cx="14.5" cy="27.5" r="1.5" fill="#747B7E"/>
            <circle cx="27.5" cy="27.5" r="1.5" fill="#747B7E"/>
            <path fill="#747B7E" d="M24.5 27v7.577a1.923 1.923 0 0 1-1.923 1.923H22a2.5 2.5 0 0 1-2.5-2.5v-7a2.5 2.5 0 1 1 5 0z"/>
            <ellipse cx="4" cy="18.5" fill="#747B7E" rx="3" ry="3.5"/>
            <ellipse cx="39" cy="18.5" fill="#747B7E" rx="3" ry="3.5"/>
            <path fill="#747B7E" d="M29.14 36.65c.622.214.704.943.245 2.188-.687 1.867-2.82 3.61-3.927 4.254-1.107.645-2.214 1.196-3.914 1.203-1.133.005-1.865-.285-2.195-.87a.783.783 0 0 1 .453-1.221c2.55-.602 4.1-1.096 4.646-1.48.548-.386 1.623-1.738 3.225-4.057a.9.9 0 0 1 1.467-.017z"/>
        </g>
    </g>
</svg>
