<svg xmlns="http://www.w3.org/2000/svg" width="18" height="18" viewBox="0 0 18 18">
    <g fill="none" fill-rule="evenodd" transform="translate(-774 -1234)">
        <g fill="#FFF" transform="translate(700 1168)">
            <rect width="598" height="122" x="1" y="1" stroke="#B6C1C6" stroke-width="2" rx="4"/>
            <rect width="600" height="124" opacity=".751" rx="4"/>
        </g>
        <rect width="598" height="122" x="701" y="1169" fill="#FFF" stroke="#B6C1C6" stroke-width="2" rx="4"/>
        <rect width="600" height="124" x="700" y="1168" fill="#FFF" opacity=".751" rx="4"/>
        <g transform="translate(776 1236)">
            <rect width="14" height="14" fill="#747B7E" rx="1.1"/>
            <path fill="#FFF" d="M11.211 4.109a.373.373 0 0 0-.526 0L6.016 8.778a.373.373 0 0 1-.526 0l-1.15-1.15a.373.373 0 0 0-.526 0l-.705.706a.373.373 0 0 0 0 .526l2.381 2.381a.373.373 0 0 0 .526 0l5.9-5.9a.374.374 0 0 0 0-.528l-.705-.704z"/>
        </g>
    </g>
</svg>
