<svg width="20" height="20" viewBox="0 0 20 20" fill="none" xmlns="http://www.w3.org/2000/svg">
    <rect width="20" height="20" rx="10" fill="#0088CC"/>
    <path d="M15.2266 6.82031C15.2734 6.49219 15.25 6.28125 15.1094 6.14062C14.9688 6 14.7812 5.97656 14.5469 6.04688L5.24219 9.63281C4.91406 9.77344 4.75 9.91406 4.75 10.0547C4.72656 10.2188 4.84375 10.3359 5.125 10.4062L7.51562 11.1562L13.0469 7.66406C13.1172 7.61719 13.1875 7.59375 13.2578 7.59375C13.3281 7.59375 13.375 7.59375 13.3984 7.64062C13.4219 7.6875 13.3984 7.71094 13.3516 7.75781L8.875 11.8125L8.6875 14.2734C8.80469 14.2734 8.89844 14.25 8.99219 14.2031C9.03906 14.1797 9.08594 14.1328 9.17969 14.0391L10.3516 12.9141L12.7656 14.6953C12.9766 14.8359 13.1641 14.8594 13.3047 14.7891C13.4453 14.7188 13.5625 14.5547 13.6328 14.2734L15.2266 6.82031Z" fill="white"/>
</svg>