<svg width="20" height="20" viewBox="0 0 20 20" fill="none" xmlns="http://www.w3.org/2000/svg">
    <rect width="20" height="20" rx="10" fill="#1DA1F2"/>
    <path d="M14.7578 8.0625C15.2266 7.71094 15.6484 7.28906 16 6.77344C15.5312 6.98438 15.0625 7.125 14.5938 7.17188C15.1094 6.84375 15.4844 6.39844 15.6719 5.8125C15.1797 6.09375 14.6641 6.30469 14.1016 6.39844C13.8672 6.16406 13.5859 5.97656 13.2812 5.83594C12.9766 5.69531 12.6484 5.625 12.2969 5.625C11.8516 5.625 11.4531 5.74219 11.0781 5.95312C10.7031 6.1875 10.3984 6.49219 10.1875 6.86719C9.95312 7.24219 9.85938 7.66406 9.85938 8.08594C9.85938 8.27344 9.85938 8.46094 9.90625 8.64844C8.89844 8.60156 7.96094 8.36719 7.07031 7.89844C6.17969 7.45312 5.45312 6.84375 4.84375 6.07031C4.60938 6.46875 4.49219 6.89062 4.49219 7.3125C4.49219 7.73438 4.58594 8.13281 4.79688 8.48438C4.98438 8.85938 5.26562 9.14062 5.59375 9.375C5.19531 9.375 4.82031 9.25781 4.49219 9.04688V9.09375C4.49219 9.67969 4.67969 10.1953 5.05469 10.6406C5.42969 11.1094 5.89844 11.3906 6.46094 11.5078C6.22656 11.5547 6.01562 11.5781 5.80469 11.5781C5.66406 11.5781 5.5 11.5781 5.35938 11.5547C5.5 12.0469 5.78125 12.4453 6.20312 12.7734C6.625 13.1016 7.09375 13.2422 7.65625 13.2422C6.74219 13.9453 5.71094 14.2969 4.58594 14.2969C4.35156 14.2969 4.16406 14.2969 4 14.2734C5.125 15.0234 6.39062 15.375 7.77344 15.375C9.20312 15.375 10.4688 15.0234 11.5938 14.2734C12.6016 13.6172 13.3984 12.75 13.9609 11.625C14.5 10.5938 14.7812 9.49219 14.7812 8.36719C14.7812 8.22656 14.7578 8.13281 14.7578 8.0625Z" fill="white"/>
</svg>