<svg width="20" height="20" viewBox="0 0 20 20" fill="none" xmlns="http://www.w3.org/2000/svg">
    <rect width="20" height="20" rx="10" fill="#410093"/>
    <path d="M10.6562 11.3438C12.7891 7.59375 14.1484 5.32031 14.7578 4.5C14.5 4.57031 14.2188 4.59375 13.9375 4.59375C13.6562 4.59375 13.3984 4.57031 13.1641 4.5C12.6484 5.4375 11.875 6.77344 10.7969 8.50781L10 9.77344L9.4375 8.85938C8.21875 6.91406 7.35156 5.46094 6.83594 4.5C6.55469 4.57031 6.27344 4.59375 5.99219 4.59375C5.71094 4.59375 5.47656 4.57031 5.24219 4.5C5.75781 5.25 6.29688 6.11719 6.88281 7.10156C7.23438 7.71094 7.75 8.57812 8.40625 9.75L9.32031 11.3438L9.22656 16.5C9.60156 16.4531 9.85938 16.4062 10 16.4062C10.1406 16.4062 10.375 16.4531 10.75 16.5L10.6562 11.3438Z" fill="white"/>
</svg>