<svg xmlns="http://www.w3.org/2000/svg" width="54" height="54" viewBox="0 0 54 54">
    <path fill="#181616" fill-rule="evenodd" d="M27.005 3C13.755 3 3.012 13.743 3.012 26.995c0 10.601 6.873 19.595 16.41 22.769 1.2.219 1.578-.492 1.578-1.128 0-.57.012-2.163 0-4.166-6.674 1.451-8.056-3.16-8.056-3.16-1.091-2.772-2.663-3.51-2.663-3.51-2.178-1.488.163-1.46.163-1.46 2.408.17 3.677 2.474 3.677 2.474 2.14 3.664 5.614 2.605 6.981 1.993.219-1.55.84-2.608 1.525-3.208-5.328-.606-10.929-2.664-10.929-11.859 0-2.62.935-4.761 2.47-6.438-.248-.606-1.073-3.046.235-6.351 0 0 2.014-.645 6.597 2.461 1.914-.532 3.967-.798 6.007-.807 2.039.01 4.091.275 6.008.807 4.582-3.105 6.594-2.461 6.594-2.461 1.308 3.304.484 5.745.238 6.351 1.535 1.677 2.466 3.817 2.466 6.438 0 9.219-5.61 11.247-10.956 11.84C32.218 38.322 33 39.762 33 42v6.642c0 .642.387 1.351 1.605 1.119C44.133 46.583 51 37.593 51 26.995 51 13.743 40.257 3 27.005 3z"/>
</svg>
