<svg xmlns="http://www.w3.org/2000/svg" width="54" height="54" viewBox="0 0 54 54">
    <g fill="none" fill-rule="nonzero" transform="translate(3 3)">
        <circle cx="24" cy="24" r="24" fill="#2CA7E0"/>
        <path fill="#FFF" d="M39 15.209c-1.105.49-2.756 1.142-4 1.291 1.273-.762 2.539-2.561 3-4-.971.577-2.087 1.355-3.227 1.773L34 13.5c-1.121-1.197-2.23-2-4-2-3.398 0-6 2.602-6 6 0 .398.047.7.11.956L24 18.5c-6 0-9.966-1.276-13-5-.531.908-1 1.872-1 3 0 2.136 1.348 3.894 3 5-1.009-.033-2.171-.542-3-1 0 2.98 4.186 6.432 7 7-1 1-4.623.074-5 0 .784 2.447 3.309 3.949 6 4-2.105 1.648-4.647 2.51-7.531 2.51-.498 0-.987-.029-1.469-.084 2.723 1.744 6.523 2.574 10 2.574 11.322 0 17-8.867 17-17 0-.268.008-.736 0-1 1.201-.868 2.172-2.059 3-3.291z"/>
    </g>
</svg>
