<svg xmlns="http://www.w3.org/2000/svg" width="54" height="54" viewBox="0 0 54 54">
    <g fill="none" fill-rule="nonzero" transform="translate(3 3)">
        <circle cx="24" cy="24" r="24" fill="#F2720C"/>
        <g fill="#FFF">
            <path d="M31 24c-1 0-3 2-7 2s-6-2-7-2a2 2 0 0 0-2 2c0 1 .568 1.48 1 1.734 1.186.693 5 2.266 5 2.266l-4.25 5.438s-.75.937-.75 1.563a2 2 0 0 0 2 2c1.021 0 1.484-.655 1.484-.655S23.993 32.993 24 33c.007-.007 4.516 5.344 4.516 5.344S28.979 39 30 39a2 2 0 0 0 2-2c0-.627-.75-1.563-.75-1.563L27 30s3.814-1.573 5-2.266c.432-.254 1-.734 1-1.734a2 2 0 0 0-2-2zM24 9a7 7 0 1 0 0 14 7 7 0 0 0 0-14zm0 10.5a3.5 3.5 0 1 1-.001-7.001A3.5 3.5 0 0 1 24 19.5z"/>
        </g>
    </g>
</svg>
