<svg xmlns="http://www.w3.org/2000/svg" width="54" height="54" viewBox="0 0 54 54">
    <g fill="none" fill-rule="nonzero" transform="translate(3 3)">
        <circle cx="24" cy="24" r="24" fill="#D0D7DB"/>
        <path fill="#E94C89" d="M24 48C10.765 48 0 37.231 0 23.998 0 10.768 10.765 0 24 0c13.233 0 24 10.767 24 23.998C48 37.231 37.233 48 24 48zm20.24-20.715c-.701-.224-6.344-1.905-12.77-.876 2.682 7.365 3.774 13.367 3.981 14.616 4.6-3.11 7.875-8.035 8.788-13.74zM32.008 42.901c-.306-1.798-1.497-8.067-4.374-15.544l-.136.047c-11.56 4.027-15.713 12.046-16.082 12.8A20.396 20.396 0 0 0 24 44.533c2.838 0 5.546-.58 8.008-1.63zM8.77 37.739c.466-.794 6.09-10.111 16.664-13.528.265-.09.535-.168.805-.245a66.889 66.889 0 0 0-1.662-3.478c-10.236 3.063-20.17 2.937-21.066 2.918-.006.21-.012.415-.012.627a20.42 20.42 0 0 0 5.272 13.707zM3.933 19.832c.915.014 9.361.052 18.951-2.495-3.396-6.04-7.059-11.115-7.6-11.855C9.549 8.184 5.261 13.47 3.932 19.831zM19.195 4.1c.567.758 4.29 5.832 7.649 12 7.291-2.73 10.377-6.879 10.746-7.404A20.426 20.426 0 0 0 24 3.531a20.44 20.44 0 0 0-4.805.568zm20.672 6.968c-.432.585-3.867 4.988-11.446 8.084a64.636 64.636 0 0 1 1.801 4.027c6.82-.858 13.597.517 14.276.657a20.41 20.41 0 0 0-4.631-12.768z"/>
    </g>
</svg>
