<svg xmlns="http://www.w3.org/2000/svg" width="54" height="54" viewBox="0 0 54 54">
    <g fill="none" fill-rule="nonzero" transform="translate(3 3)">
        <circle cx="24" cy="24" r="24" fill="#D0D7DB"/>
        <g fill="#DC4E41">
            <path d="M8.226 23.835c-.193-5.022 4.245-9.663 9.316-9.723 2.585-.219 5.1.776 7.056 2.4-.803.874-1.619 1.738-2.491 2.547-1.722-1.037-3.795-1.827-5.808-1.125-3.246.916-5.212 4.715-4.01 7.863.994 3.288 5.028 5.092 8.19 3.71 1.637-.58 2.716-2.078 3.19-3.686-1.876-.037-3.753-.014-5.63-.066-.004-1.106-.009-2.208-.004-3.315 3.129-.005 6.262-.014 9.396.014.193 2.711-.211 5.613-1.99 7.789-2.434 3.106-6.932 4.017-10.592 2.799-3.884-1.265-6.708-5.143-6.623-9.207zM33.53 19.65h2.79c.006.925.015 1.855.02 2.78.933.01 1.872.014 2.805.019v2.771l-2.805.014c-.01.93-.014 1.855-.02 2.785-.932-.004-1.866 0-2.795 0-.009-.93-.009-1.855-.019-2.78-.933-.01-1.871-.014-2.805-.02v-2.77c.934-.005 1.867-.01 2.805-.02.005-.924.014-1.854.024-2.78z"/>
        </g>
    </g>
</svg>
