<svg xmlns="http://www.w3.org/2000/svg" width="54" height="54" viewBox="0 0 54 54">
    <g fill="none" fill-rule="nonzero" transform="translate(3 3)">
        <circle cx="24" cy="24" r="24" fill="#D0D7DB"/>
        <g fill="#464646">
            <path d="M17.726 19.096c.168.021.335.042.493.074 1.285.256 2.302.979 3.023 2.139.553.882.81 1.861.751 2.914-.089 1.681-.79 2.99-2.084 3.926a4.106 4.106 0 0 1-2.144.777 4.222 4.222 0 0 1-2.973-.905c-1.018-.787-1.66-1.861-1.857-3.191-.237-1.585.158-2.99 1.165-4.181a4.305 4.305 0 0 1 2.717-1.521c.108-.022.217-.032.326-.043.187.01.385.01.583.01zm-.297 8.798c1.986 0 3.596-1.734 3.606-3.873.01-2.138-1.61-3.883-3.596-3.883-1.985 0-3.596 1.734-3.605 3.873 0 2.138 1.61 3.883 3.595 3.883zM27.624 19.096c.168.021.336.042.494.074 1.047.202 1.916.734 2.627 1.575a4.946 4.946 0 0 1 1.136 2.755c.119 1.309-.187 2.5-.938 3.543-.721 1-1.66 1.617-2.816 1.83a4.07 4.07 0 0 1-2.835-.447c-1.323-.735-2.163-1.905-2.45-3.48-.276-1.531.07-2.914 1.008-4.116a4.379 4.379 0 0 1 2.618-1.65c.197-.042.395-.063.593-.095.187.01.375.01.563.01zm-.287 8.798c1.986 0 3.596-1.734 3.596-3.873 0-2.138-1.61-3.883-3.596-3.883-1.985 0-3.596 1.734-3.596 3.873-.01 2.138 1.6 3.883 3.596 3.883zM6.07 26.49c.118-.235.325-.288.533-.33.197-.054.266 0 .345.202.346.84.91 1.383 1.759 1.564 1.205.265 2.45-.66 2.667-1.958.257-1.51-.721-2.734-1.917-2.947-.513-.095-.987.043-1.432.309-.365.213-.682.5-.929.861-.069.107-.167.16-.286.15a2.157 2.157 0 0 1-.375-.086c-.109-.032-.168-.127-.178-.255v-.085-4.17c0-.054 0-.117.01-.17.03-.224.187-.373.395-.373h4.534c.148 0 .237.064.257.224.02.18.01.361 0 .542-.01.128-.08.17-.198.18H7.136v2.607c.03-.021.05-.042.079-.053 1.808-1.415 4.337-.49 4.979 1.82.543 1.978-.652 4.052-2.539 4.382-1.541.277-3.033-.66-3.566-2.244 0-.011-.01-.022-.02-.032v-.139zM32.84 23.894c0-.724-.02-1.458 0-2.181.03-.99.444-1.766 1.254-2.266 1.363-.83 3.112.042 3.448 1.702.316 1.585-.78 2.904-2.035 3.096-.188.032-.386.01-.583 0-.139-.011-.208-.085-.208-.234 0-.15.01-.298.04-.437.03-.18.118-.244.286-.244.297 0 .573-.053.84-.202.573-.309.909-1.128.81-1.692-.109-.67-.612-1.213-1.245-1.33-.78-.138-1.511.426-1.679 1.288-.03.149-.04.297-.04.446v4.266c0 .266-.059.34-.306.373-.118.01-.237.01-.345-.01-.168-.022-.247-.118-.247-.31.01-.755.01-1.51.01-2.265zM40.426 21.074c.119-.127.237-.265.356-.393l1.264-1.362c.158-.17.277-.18.454-.032.08.064.149.15.208.234.109.16.089.277-.04.415l-1.56 1.681a.787.787 0 0 1-.11.085c.06.043.1.075.14.107.513.542 1.017 1.095 1.52 1.638.149.16.159.276.03.447-.06.085-.138.17-.227.244-.148.117-.277.096-.405-.042l-1.56-1.681c-.02-.021-.04-.053-.07-.096-.099.107-.178.202-.267.298l-1.343 1.447c-.178.191-.306.191-.494.021a.952.952 0 0 1-.178-.223c-.099-.16-.089-.266.04-.405l1.56-1.68c.02-.022.05-.043.1-.086-.13-.127-.238-.234-.347-.35-.434-.469-.869-.947-1.304-1.415-.138-.15-.148-.266-.03-.426.07-.096.14-.17.228-.245.158-.127.277-.117.415.032.524.564 1.047 1.139 1.57 1.702 0 .043.02.054.05.085z"/>
        </g>
    </g>
</svg>
