<svg xmlns="http://www.w3.org/2000/svg" width="54" height="54" viewBox="0 0 54 54">
    <g fill="none" fill-rule="nonzero" transform="translate(3 3)">
        <circle cx="24" cy="24" r="24" fill="#D0D7DB"/>
        <path fill="#FC5E49" d="M39.363 24.702a3.335 3.335 0 0 0-3.45-3.207 3.34 3.34 0 0 0-2.182.923 16.208 16.208 0 0 0-8.778-2.805l1.48-7.111 4.878 1.025a2.279 2.279 0 1 0 4.533-.487 2.279 2.279 0 0 0-4.232-.907l-5.587-1.116a.706.706 0 0 0-.845.538v.012l-1.683 7.91a16.33 16.33 0 0 0-8.89 2.805 3.324 3.324 0 0 0-4.704.147 3.324 3.324 0 0 0 1.043 5.304 7.397 7.397 0 0 0 0 1.003c0 5.106 5.95 9.26 13.288 9.26s13.288-4.148 13.288-9.26a7.397 7.397 0 0 0 0-1.003 3.327 3.327 0 0 0 1.841-3.031zm-22.796 2.283a2.288 2.288 0 0 1 2.284-2.283 2.288 2.288 0 0 1 2.283 2.283 2.288 2.288 0 0 1-2.283 2.284 2.291 2.291 0 0 1-2.284-2.284zm13.243 6.268a8.752 8.752 0 0 1-5.633 1.756 8.752 8.752 0 0 1-5.633-1.756.615.615 0 1 1 .867-.867 7.448 7.448 0 0 0 4.743 1.433c1.7.091 3.378-.396 4.766-1.388a.641.641 0 0 1 .9.011.642.642 0 0 1-.01.901v-.09zm-.408-3.905a2.288 2.288 0 0 1-2.284-2.283 2.288 2.288 0 0 1 2.284-2.284 2.288 2.288 0 0 1 2.283 2.284 2.28 2.28 0 0 1-2.187 2.368h-.113l.017-.085z"/>
    </g>
</svg>
