<svg xmlns="http://www.w3.org/2000/svg" width="54" height="54" viewBox="0 0 54 54">
    <defs>
        <radialGradient id="a" cx="1.819%" cy="90.845%" r="144.605%" fx="1.819%" fy="90.845%" gradientTransform="matrix(.99843 -.05234 .05233 .99863 -.048 .002)">
            <stop offset="0%" stop-color="#FED576"/>
            <stop offset="26.34%" stop-color="#F47133"/>
            <stop offset="60.91%" stop-color="#BC3081"/>
            <stop offset="100%" stop-color="#4C63D2"/>
        </radialGradient>
        <radialGradient id="b" cx="1.814%" cy="90.83%" r="144.604%" fx="1.814%" fy="90.83%">
            <stop offset="0%" stop-color="#FED576"/>
            <stop offset="26.34%" stop-color="#F47133"/>
            <stop offset="60.91%" stop-color="#BC3081"/>
            <stop offset="100%" stop-color="#4C63D2"/>
        </radialGradient>
    </defs>
    <g fill="none" fill-rule="nonzero" transform="translate(3 3)">
        <circle cx="24" cy="24" r="24" fill="#D0D7DB"/>
        <g transform="translate(9 9)">
            <path fill="url(#a)" d="M5.178.803a7.34 7.34 0 0 0-2.653 1.728A7.319 7.319 0 0 0 .797 5.178c-.371.95-.62 2.039-.694 3.633-.073 1.595-.09 2.106-.09 6.17 0 4.066.017 4.577.09 6.171.073 1.594.329 2.684.694 3.633a7.34 7.34 0 0 0 1.728 2.653 7.34 7.34 0 0 0 2.653 1.728c.95.372 2.039.621 3.633.694 1.595.073 2.106.091 6.17.091 4.066 0 4.577-.018 6.171-.091 1.594-.073 2.684-.329 3.633-.694a7.34 7.34 0 0 0 2.653-1.728 7.34 7.34 0 0 0 1.728-2.653c.372-.95.621-2.039.694-3.633.073-1.594.091-2.105.091-6.17 0-4.065-.018-4.576-.091-6.17-.073-1.595-.329-2.684-.694-3.634a7.38 7.38 0 0 0-1.722-2.647A7.34 7.34 0 0 0 24.791.803c-.95-.371-2.038-.62-3.633-.693-1.594-.073-2.105-.092-6.17-.092-4.065 0-4.576.019-6.17.092-1.601.066-2.69.322-3.64.693zM21.03 2.8c1.46.067 2.252.31 2.781.517.7.274 1.2.597 1.722 1.12a4.663 4.663 0 0 1 1.12 1.722c.207.53.45 1.32.517 2.781.073 1.576.086 2.05.086 6.049 0 3.998-.019 4.472-.086 6.049-.067 1.46-.31 2.251-.517 2.78a4.663 4.663 0 0 1-1.12 1.723 4.663 4.663 0 0 1-1.722 1.12c-.53.206-1.32.45-2.78.516-1.577.073-2.051.086-6.05.086-3.997 0-4.472-.019-6.048-.086-1.46-.066-2.251-.31-2.78-.517a4.663 4.663 0 0 1-1.723-1.12 4.663 4.663 0 0 1-1.12-1.722c-.207-.529-.45-1.32-.517-2.78-.073-1.577-.085-2.051-.085-6.05 0-3.997.018-4.472.085-6.048.067-1.46.31-2.251.517-2.78.274-.7.597-1.2 1.12-1.723a4.663 4.663 0 0 1 1.722-1.12c.53-.206 1.32-.45 2.781-.517 1.576-.073 2.05-.085 6.049-.085 3.998 0 4.472.012 6.048.085z"/>
            <path fill="url(#b)" d="M7.296 14.988a7.686 7.686 0 1 0 7.686-7.686 7.682 7.682 0 0 0-7.686 7.686zm12.676 0a4.989 4.989 0 0 1-4.99 4.99 4.989 4.989 0 0 1-4.99-4.99 4.989 4.989 0 0 1 4.99-4.99 4.989 4.989 0 0 1 4.99 4.99z"/>
            <circle cx="22.978" cy="6.998" r="1.795" fill="#654C9F"/>
        </g>
    </g>
</svg>
