<svg xmlns="http://www.w3.org/2000/svg" width="54" height="54" viewBox="0 0 54 54">
    <g fill="none" fill-rule="nonzero" transform="translate(3 3)">
        <circle cx="24" cy="24" r="24" fill="#D0D7DB"/>
        <path fill="#54769B" d="M25.041 33c1 0 1-1.44 1-2 0-1 1-2 2-2s2.715 1.715 4 3c1 1 1 1 2 1h3s2-.076 2-2c0-.625-.687-1.687-3-4-2-2-3.025-.968 0-5 1.842-2.456 3.184-4.681 2.953-5.323-.22-.613-5.347-1.589-5.953-.677-2 3-2.367 3.735-3 5-1 2-1.1 3-2 3-.91 0-1-1.941-1-3 0-3.306.48-5.644-1-6h-3c-1.61 0-3 1-3 1s-1.24.968-1 1c.298.04 2-.414 2 1v2s.01 4-1 4c-1 0-3-4-5-7-.785-1.177-1-1-2-1-1.072 0-1.999.042-3 .042-1 0-1.128.637-1 .958 2 5 3.437 8.141 7.237 12.096 3.485 3.63 5.813 3.822 7.763 3.904.5.023 0 0 1 0z"/>
    </g>
</svg>
