<svg xmlns="http://www.w3.org/2000/svg" width="54" height="54" viewBox="0 0 54 54">
    <g fill="none" fill-rule="evenodd" transform="translate(3 3)">
        <circle cx="24" cy="24" r="21" fill="#FF4081" fill-rule="nonzero"/>
        <path fill="#E51067" d="M24 48C10.8 48 0 37.2 0 24S10.8 0 24 0s24 10.8 24 24-10.8 24-24 24zm20.25-20.7c-.75-.3-6.3-1.95-12.75-.9 2.7 7.35 3.75 13.35 4.05 14.55 4.5-3.15 7.8-7.95 8.7-13.65zm-12.3 15.6c-.3-1.8-1.5-8.1-4.35-15.6h-.15C15.9 31.35 11.7 39.3 11.4 40.05c3.45 2.7 7.8 4.35 12.6 4.35 2.85.15 5.55-.45 7.95-1.5zM8.7 37.65c.45-.75 6.15-10.05 16.65-13.5.3-.15.6-.15.75-.3-.45-1.2-1.05-2.4-1.65-3.45-10.2 3-20.25 3-21 2.85v.6c0 5.4 2.1 10.2 5.25 13.8zM3.9 19.8c.9 0 9.3 0 18.9-2.55-3.45-6-7.05-11.1-7.65-11.85C9.6 8.1 5.25 13.5 3.9 19.8zM19.2 4.05c.6.75 4.35 5.85 7.65 12 7.35-2.7 10.35-6.9 10.8-7.35-3.6-3.15-8.4-5.1-13.65-5.1-1.65 0-3.3.15-4.8.45zm20.7 7.05c-.45.6-3.9 4.95-11.4 8.1.45.9.9 1.95 1.35 3 .15.3.3.75.45 1.05 6.75-.9 13.65.45 14.25.6-.15-4.8-1.8-9.3-4.65-12.75z"/>
    </g>
</svg>
