<?xml version="1.0" encoding="UTF-8"?>
<svg style="" viewBox="0 0 54 54" xmlns="http://www.w3.org/2000/svg">
<rect class="" width="100%" height="100%" fill="none" style=""/>
<g class="currentLayer" style="">
<g class="">
<g transform="translate(0 1024) scale(.1 -.1)" fill="#21759b">
<path d="m253.6 10239c-55.19-3.4338-108.57-24.099-151.71-58.686-41.143-32.964-71.984-77.228-88.279-126.67-19.853-60.122-17.918-125.49 5.3692-184.8 3.9957-10.176 13.548-29.468 19.354-39.082 23.474-38.77 54.691-69.986 93.461-93.461 9.6145-5.8062 28.968-15.358 39.082-19.354 64.555-25.285 135.23-25.285 199.78 0 10.114 3.9957 29.468 13.548 39.082 19.354 38.77 23.474 69.986 54.691 93.461 93.461 5.8062 9.6145 15.358 28.968 19.354 39.082 23.537 60.06 25.223 125.43 4.8073 186.67-7.4919 22.288-20.041 47.261-34.025 67.489-33.276 47.948-82.41 84.72-137.66 102.89-32.652 10.801-67.614 15.296-102.08 13.111zm35.586-93.586c54.004-4.4327 103.45-33.838 133.35-79.414 11.987-18.293 21.289-40.768 25.535-61.683 3.3089-16.17 4.2454-40.206 2.1851-56.501-3.9332-31.84-15.483-60.247-35.149-86.344-6.4305-8.5532-18.168-20.852-26.659-28.032-15.983-13.423-37.834-25.66-58.062-32.59-34.65-11.737-77.104-11.737-111.75 0-20.228 6.93-42.079 19.167-58.062 32.59-34.088 28.656-56.314 69.674-61.808 114.38-1.3735 10.676-1.3735 30.966-0.062432 42.017 4.6824 39.457 22.663 76.292 50.882 104.45 37.022 36.835 87.467 55.315 139.6 51.132z"/>
<path d="m264.52 10138c-19.416-0.99891-37.896-5.2443-54.753-12.424-55.19-23.662-93.274-72.733-102.26-131.73-1.3735-9.3024-1.873-28.469-0.99891-38.708 1.9354-21.789 6.93-39.332 16.919-59.623 16.545-33.464 41.455-58.873 74.606-75.917 17.543-9.0527 32.402-13.86 52.131-16.857 12.986-1.9978 35.711-1.9978 48.697 0 19.729 2.9967 34.587 7.804 52.131 16.857 33.151 17.044 58.062 42.454 74.606 75.917 9.9891 20.29 14.984 37.834 16.919 59.623 0.87405 10.239 0.37459 29.406-0.99891 38.708-8.9902 58.998-47.074 108.07-102.33 131.73-22.163 9.4897-48.198 13.86-74.669 12.424zm23.1-16.857c24.224-2.2476 50.945-11.675 71.173-25.223 6.7427-4.4951 14.859-10.801 17.106-13.36 1.1862-1.3111 1.1862-1.3111-0.74918-1.3111-14.672 0-27.096-14.11-25.472-28.844 0.81162-6.7427 4.8073-16.794 9.9891-24.848 11.55-17.98 16.669-31.341 17.606-45.763 0.43702-7.3046-0.49946-13.797-3.8084-26.596-2.4973-9.8643-22.913-76.854-23.412-76.854-0.31216 0-54.94 161.51-54.94 162.39 0 0.24973 2.8719 0.56189 6.4305 0.81162 11.675 0.74918 13.048 0.99891 14.921 2.9343 2.3724 2.3724 2.4349 5.931 0.12486 8.3035-2.0603 1.9978-2.31 1.9978-26.783 0.56189-17.294-0.99891-18.979-0.99891-38.084 0.12486-10.988 0.62432-20.665 1.1238-21.477 1.0613-5.1819-0.37459-7.2421-6.3681-3.5586-10.301 1.1862-1.2486 2.1851-1.5608 6.9924-1.9354 3.0592-0.24973 7.2421-0.68675 9.3024-0.87405l3.7459-0.43702 11.737-32.277 11.8-32.34-16.42-49.634c-9.0527-27.283-16.545-49.634-16.794-49.634-0.37459 0-55.565 162.32-55.565 163.51 0 0.37459 0.93648 0.68675 2.0603 0.68675 4.8697 0.062432 16.857 1.3111 17.98 1.9354 4.0581 2.1851 3.1216 9.8643-1.3735 11.05-0.99891 0.24973-6.8051 0.12486-12.923-0.31216-14.921-0.99891-39.457-1.7481-39.457-1.1862 0 0.68675 4.8697 7.7416 8.6781 12.549 17.169 21.726 41.829 38.645 70.548 48.322 12.299 4.1829 22.6 6.4305 35.649 7.7416 4.9321 0.49946 18.23 0.37459 24.973-0.24973zm123.24-85.282c6.6178-13.298 10.801-26.346 13.485-42.017 5.4316-31.653 0.49946-63.743-14.11-92.399-11.55-22.663-30.966-44.327-53.379-59.373-3.1216-2.0603-5.7438-3.6835-5.8686-3.5586-0.062432 0.12486 11.3 33.464 25.285 74.169 14.047 40.706 26.409 77.353 27.47 81.411 4.0581 15.296 5.8062 31.466 4.5575 42.391-0.31216 2.6221-0.49946 4.8073-0.37459 4.8073 0.062432 0 1.4359-2.4349 2.9343-5.4316zm-238.49-103.76c19.791-54.066 35.836-98.393 35.711-98.58-0.1873-0.12486-2.9343 1.1862-6.1183 2.9967-44.639 25.347-72.609 66.615-78.602 115.81-1.1862 9.9891-0.93648 26.659 0.56189 36.585 1.6232 10.551 2.9967 17.106 4.5575 22.413 1.9978 6.93 7.0548 19.978 7.4919 19.479 0.1873-0.24973 16.607-44.639 36.398-98.705zm128.8-41.58c12.549-34.025 22.913-62.432 23.1-63.119 0.24973-1.1862-0.31216-1.4984-7.0548-3.3713-8.9278-2.4973-20.665-4.6824-30.217-5.6813-8.6156-0.87405-27.22-0.43702-35.087 0.93648-6.6178 1.1238-19.853 4.6824-19.853 5.3692 0 0.31216 9.9891 29.967 22.163 65.928 12.174 35.961 22.163 65.554 22.226 65.741 0.12486 0.87405 2.9967-6.8675 24.723-65.803z"/>
</g>
</g>
</g>
</svg>
