<svg xmlns="http://www.w3.org/2000/svg" width="54" height="54" viewBox="0 0 54 54">
    <defs>
        <radialGradient id="a" cx="1.826%" cy="90.829%" r="144.577%" fx="1.826%" fy="90.829%" gradientTransform="rotate(-87 .018 .908)">
            <stop offset="0%" stop-color="#FED576"/>
            <stop offset="26.34%" stop-color="#F47133"/>
            <stop offset="60.91%" stop-color="#BC3081"/>
            <stop offset="100%" stop-color="#4C63D2"/>
        </radialGradient>
    </defs>
    <g fill="none" fill-rule="nonzero">
        <path fill="url(#a)" d="M.08 23.353v1.294c.334 12.369 10.298 22.302 22.152 23.232h3.648c11.924-.94 21.716-10.964 22.04-23.252v-1.274C47.595 10.843 37.46.697 25.252.071 12.116-.596.445 9.944.081 23.353z" transform="translate(3 3)"/>
        <g fill="#FFF" transform="translate(12 12)">
            <path d="M15.01 2.74c3.997 0 4.474.01 6.054.083 1.463.062 2.247.312 2.777.51.7.271 1.198.594 1.717 1.115.52.52.848 1.02 1.124 1.719.201.53.445 1.323.52 2.78.074 1.584.084 2.053.084 6.053s-.01 4.469-.085 6.052c-.063 1.458-.307 2.25-.519 2.781-.276.698-.594 1.198-1.124 1.72-.52.52-1.017.843-1.717 1.114-.53.208-1.325.448-2.777.51-1.58.073-2.057.083-6.053.083-3.997 0-4.474-.01-6.053-.083-1.463-.062-2.248-.312-2.778-.51a4.597 4.597 0 0 1-1.717-1.115 4.726 4.726 0 0 1-1.124-1.719c-.201-.53-.445-1.323-.52-2.78C2.747 19.468 2.736 19 2.736 15s.01-4.469.085-6.052c.063-1.458.307-2.25.52-2.781.275-.698.593-1.198 1.123-1.72A4.597 4.597 0 0 1 6.18 3.334c.53-.208 1.325-.448 2.778-.51 1.58-.063 2.056-.083 6.053-.083zm0-2.698c-4.07 0-4.579.02-6.169.093-1.59.073-2.682.323-3.636.698a7.306 7.306 0 0 0-2.65 1.73A7.245 7.245 0 0 0 .827 5.219C.456 6.167.2 7.26.127 8.854c-.074 1.594-.085 2.104-.085 6.167 0 4.062.022 4.573.085 6.166.074 1.594.329 2.678.7 3.636.381.98.89 1.823 1.728 2.656a7.396 7.396 0 0 0 2.65 1.73c.954.374 2.046.624 3.636.697 1.6.073 2.11.094 6.17.094 4.06 0 4.58-.02 6.17-.094 1.59-.073 2.681-.323 3.635-.698a7.306 7.306 0 0 0 2.65-1.729 7.245 7.245 0 0 0 1.728-2.656c.371-.948.626-2.042.7-3.636.074-1.593.085-2.104.085-6.166 0-4.063-.021-4.573-.085-6.167-.074-1.594-.329-2.677-.7-3.635a7.331 7.331 0 0 0-1.728-2.657 7.396 7.396 0 0 0-2.65-1.729C23.862.458 22.77.208 21.18.135 19.59.062 19.07.042 15.01.042z"/>
            <path d="M15.01 7.323a7.68 7.68 0 0 0-7.685 7.687 7.687 7.687 0 1 0 15.371 0 7.687 7.687 0 0 0-7.685-7.687zm0 12.677a4.99 4.99 0 1 1 0-9.98 4.99 4.99 0 1 1 0 9.98z"/>
            <ellipse cx="23.004" cy="7.021" rx="1.792" ry="1.792"/>
        </g>
    </g>
</svg>
