<?xml version="1.0" encoding="UTF-8" standalone="no"?>
<svg width="48px" height="48px" viewBox="0 0 48 48" version="1.1" xmlns="http://www.w3.org/2000/svg" xmlns:xlink="http://www.w3.org/1999/xlink">
    <!-- Generator: Sketch 50.2 (55047) - http://www.bohemiancoding.com/sketch -->
    <title>logotype-for-admin-v2</title>
    <desc>Created with Sketch.</desc>
    <defs></defs>
    <g id="logotype-for-admin-v2" stroke="none" stroke-width="1" fill="none" fill-rule="evenodd">
        <g id="Group" transform="translate(2.000000, 2.000000)" stroke="#FFFFFF" stroke-width="2.765952">
            <path d="M8.85001369,35.0137566 L8.85001369,43.8567282 L0.00497323495,35.0137566 L0,35.0137566 L0,17.5068783 C0,7.8380964 7.8380964,0 17.5068783,0 C27.1756602,0 35.0137566,7.8380964 35.0137566,17.5068783 C35.0137566,27.1756602 27.1756602,35.0137566 17.5068783,35.0137566 L8.85001369,35.0137566 Z" id="Combined-Shape" stroke-linecap="round" stroke-linejoin="round"></path>
            <path d="M8.8,26.3068783 C8.8,16.6380964 16.6380964,8.8 26.3068783,8.8 C35.9756602,8.8 43.8137566,16.6380964 43.8137566,26.3068783 C43.8137566,35.9756602 35.9756602,43.8137566 26.3068783,43.8137566 L8.8,43.8137566 L8.8,26.3068783 Z" id="logotype-for-admin-copy" stroke-linejoin="round"></path>
            <path d="M8.80053004,26.125 C8.87441917,16.5440266 16.6641024,8.8 26.2625,8.8 C28.8064,8.8 31.2232507,9.34396311 33.4030813,10.3219187 C34.3810369,12.5017493 34.925,14.9186 34.925,17.4625 C34.925,27.0608976 27.1809734,34.8505808 17.6,34.92447 L8.8,34.925 L8.8,26.125 Z" id="Combined-Shape"></path>
        </g>
    </g>
</svg>