<svg xmlns="http://www.w3.org/2000/svg" width="20" height="20" viewBox="0 0 20 20">
  <g fill="none" fill-rule="evenodd" stroke="#FFF" transform="translate(1 1)">
    <path stroke-linecap="round" stroke-linejoin="round" d="M3.6,14.31 L3.6,18 L0,14.4 L0,7.2 C5.4055686e-16,3.2235498 3.24593556,0 7.25,0 C11.2540644,0 14.5,3.2235498 14.5,7.2 C14.5,11.1764502 11.2540644,14.4 7.25,14.4 C6.8588141,14.4 6.47486435,14.369232 6.10047062,14.31 L3.6,14.31 Z"/>
    <path stroke-linecap="round" stroke-linejoin="round" d="M3.6,10.8 C3.6,6.8235498 6.8235498,3.6 10.8,3.6 C14.7764502,3.6 18,6.8235498 18,10.8 C18,14.7764502 14.7764502,18 10.8,18 L3.6,18 L3.6,10.8 Z"/>
    <path d="M7.2,14.4 C11.1764502,14.4 14.4,11.1764502 14.4,7.2 C14.4,6.67175537 14.3431129,6.15679743 14.2351308,5.66091818 C14.1271487,5.16503894 13.9680716,4.68823839 13.7636914,4.23630856 C12.8598318,3.82754823 11.8564893,3.6 10.8,3.6 C8.8117749,3.6 7.0117749,4.40588745 5.70883118,5.70883118 C4.40588745,7.0117749 3.6,8.8117749 3.6,10.8 L3.6,14.4 L7.2,14.4 Z"/>
  </g>
</svg>
