<?xml version="1.0" encoding="UTF-8"?>
<svg width="180px" height="180px" viewBox="0 0 128 128" version="1.1" xmlns="http://www.w3.org/2000/svg" xmlns:xlink="http://www.w3.org/1999/xlink">
    <!-- Generator: Sketch 52.4 (67378) - http://www.bohemiancoding.com/sketch -->
    <title>personage-anycomment-cvet-avatar</title>
    <desc>Created with Sketch.</desc>
    <g id="personage-anycomment-cvet-avatar" stroke="none" stroke-width="1" fill="none" fill-rule="evenodd">
        <g id="Group-2-Copy-6" transform="translate(28.000000, 12.000000)">
            <g id="Group-7" transform="translate(0.000000, 49.576763)">
                <rect id="Rectangle-Copy-10" fill="#F4C09E" x="0" y="0" width="72" height="11" rx="5.5"></rect>
                <path d="M71.600207,3.4375 C71.8580263,4.07442161 72,4.77063094 72,5.5 C72,8.53756612 69.5375661,11 66.5,11 L5.5,11 C2.46243388,11 3.71994563e-16,8.53756612 0,5.5 C-8.9321948e-17,4.77063094 0.141973655,4.07442161 0.39979297,3.4375 C1.21570061,5.45313336 3.19180293,6.875 5.5,6.875 L66.5,6.875 C68.8081971,6.875 70.7842994,5.45313336 71.600207,3.4375 Z" id="Combined-Shape" fill="#EB9380"></path>
            </g>
            <path d="M9.85,54.1400415 L62.15,54.1400415 L62.15,34.4242739 L16.8,34.4242739 C12.961621,34.4242739 9.85,37.5358948 9.85,41.3742739 L9.85,54.1400415 Z" id="Rectangle" stroke="#979797" stroke-width="0.5"></path>
            <path d="M29.28,6.25726141 L42.72,6.25726141 C55.4446406,6.25726141 65.76,16.5726208 65.76,29.2972614 L65.76,47.6700415 C65.76,51.381395 62.7513535,54.3900415 59.04,54.3900415 L12.96,54.3900415 C9.24864648,54.3900415 6.24,51.381395 6.24,47.6700415 L6.24,29.2972614 C6.24,16.5726208 16.5553594,6.25726141 29.28,6.25726141 Z" id="Rectangle" fill="#53146C"></path>
            <rect id="Rectangle" fill="#EB9380" x="19.2" y="86.120332" width="33.6" height="23.1037344"></rect>
            <path d="M19,87 L53,87 C51.5973745,94.9516386 44.5199035,101 36,101 C27.4800965,101 20.4026255,94.9516386 19,87 Z" id="Combined-Shape" fill="#E98079"></path>
            <rect id="Rectangle" fill="#F2B497" x="9.6" y="12.5145228" width="52.8" height="80.8630705" rx="26.4"></rect>
            <rect id="Rectangle-Copy-3" fill="#F2B497" x="9.6" y="12.5145228" width="52" height="80" rx="26"></rect>
            <rect id="Rectangle-Copy-29" fill="#F4C09E" x="9.6" y="7.21991701" width="52" height="78" rx="26"></rect>
            <path d="M47.04,60.1659751 L47.04,60.6778423 C47.04,66.775066 42.0972236,71.7178423 36,71.7178423 C29.9027764,71.7178423 24.96,66.775066 24.96,60.6778423 L24.96,60.1659751 L47.04,60.1659751 Z" id="Combined-Shape-Copy-5" fill="#FFFFFF"></path>
            <circle id="Oval-Copy-6" fill="#000000" cx="25" cy="52.3526971" r="3"></circle>
            <path d="M40.32,0 L65.76,0 L65.76,14.9782573 C65.76,26.3774145 56.5191572,35.6182573 45.12,35.6182573 L30.24,35.6182573 L30.24,10.08 C30.24,4.51296972 34.7529697,2.79900371e-15 40.32,1.77635684e-15 Z" id="Rectangle" fill="#642B7A"></path>
            <path d="M53.28,0 L53.28,5.77593361 L31.2024768,5.77593361 C32.8169964,2.36182204 36.2926817,2.51616321e-15 40.32,1.77635684e-15 L53.28,0 Z" id="Combined-Shape" fill="#53146C"></path>
            <path d="M32.16,5.77593361 L53.28,5.77593361 L53.28,14.9782573 C53.28,26.3774145 44.0391572,35.6182573 32.64,35.6182573 L6.24,35.6182573 L6.24,31.6959336 C6.24,17.3807129 17.8447793,5.77593361 32.16,5.77593361 Z" id="Rectangle-Copy-39" fill="#53146C"></path>
            <rect id="Rectangle-Copy-13" fill="#44CDAC" x="6" y="105" width="62" height="10" rx="4.8"></rect>
            <path d="M58,110 C58,107.238576 60.2385763,105 63,105 C65.7614237,105 68,107.238576 68,110 C68,112.761424 65.7614237,115 63,115 L58,115 L58,110 Z" id="logotype-for-admin-copy-2" fill="#EC4568"></path>
            <path d="M31.2,0 L31.2,12.033195 L19.2,12.033195 L19.2,12 C19.2,5.372583 24.572583,1.21743675e-15 31.2,0 Z" id="Rectangle" fill="#53146C"></path>
            <path d="M24.48,28.879668 L24.48,38.5062241 L14.88,38.5062241 L14.88,38.479668 C14.88,33.1777345 19.1780664,28.879668 24.48,28.879668 Z" id="Rectangle-Copy-34" fill="#53146C" transform="translate(19.680000, 33.692946) scale(-1, -1) translate(-19.680000, -33.692946) "></path>
            <path d="M28.32,32.2489627 L28.32,40.9128631 L19.68,40.9128631 L19.68,40.8889627 C19.68,36.1172224 23.5482598,32.2489627 28.32,32.2489627 Z" id="Rectangle-Copy-33" fill="#53146C" transform="translate(24.000000, 36.580913) scale(-1, -1) translate(-24.000000, -36.580913) "></path>
            <circle id="Oval-Copy-9" fill="#000000" cx="47" cy="52.3526971" r="3"></circle>
        </g>
    </g>
</svg>