<svg xmlns="http://www.w3.org/2000/svg" xmlns:xlink="http://www.w3.org/1999/xlink" width="30" height="30" viewBox="0 0 30 30">
    <defs>
        <rect id="a" width="600" height="64" rx="4"/>
    </defs>
    <g fill="none" fill-rule="evenodd" transform="translate(-348 -17)">
        <use fill="#FFF" xlink:href="#a"/>
        <rect width="598" height="62" x="1" y="1" stroke="#B6C1C6" stroke-width="2" rx="4"/>
        <rect width="600" height="64" fill="#FFF" opacity=".751" rx="4"/>
        <circle cx="363" cy="32" r="12" fill="#F2720C"/>
        <g fill="#FFF" fill-rule="nonzero">
            <path d="M366.889 32c-.556 0-1.667 1.067-3.889 1.067-2.222 0-3.333-1.067-3.889-1.067-.611 0-1.111.48-1.111 1.067 0 .533.333.8.556.906.666.374 2.777 1.227 2.777 1.227l-2.389 2.88s-.444.48-.444.853c0 .587.5 1.067 1.111 1.067.556 0 .833-.373.833-.373L363 36.8l2.5 2.827s.278.373.833.373c.611 0 1.111-.48 1.111-1.067 0-.32-.444-.853-.444-.853l-2.333-2.88s2.11-.853 2.777-1.227c.223-.16.556-.373.556-.906 0-.587-.5-1.067-1.111-1.067zM362.5 24c-1.95 0-3.5 1.55-3.5 3.5s1.55 3.5 3.5 3.5 3.5-1.55 3.5-3.5-1.55-3.5-3.5-3.5zm.5 6c-1.086 0-2-.914-2-2 0-1.086.914-2 2-2 1.086 0 2 .914 2 2 0 1.086-.914 2-2 2z"/>
        </g>
    </g>
</svg>
