<?xml version="1.0" encoding="UTF-8" standalone="no"?>
<svg width="48px" height="48px" viewBox="0 0 48 48" version="1.1" xmlns="http://www.w3.org/2000/svg" xmlns:xlink="http://www.w3.org/1999/xlink">
    <!-- Generator: Sketch 50.2 (55047) - http://www.bohemiancoding.com/sketch -->
    <title>google-for-avatar</title>
    <desc>Created with Sketch.</desc>
    <defs></defs>
    <g id="google-for-avatar" stroke="none" stroke-width="1" fill="none" fill-rule="evenodd">
        <g id="if-google-plus-48" fill-rule="nonzero">
            <circle id="XMLID_30_" fill="#D0D7DB" cx="24" cy="24" r="24"></circle>
            <g id="Group" transform="translate(8.000000, 13.894737)" fill="#DC4E41">
                <g id="Shape">
                    <path d="M0.225557522,9.94021053 C0.0331327434,4.91831579 4.47079646,0.277473684 9.54223009,0.217263158 C12.1270088,-0.00126315789 14.6416991,0.993684211 16.5978053,2.61642105 C15.7953982,3.49094737 14.9789735,4.35536842 14.1069027,5.16463158 C12.3848496,4.12757895 10.3115044,3.33726316 8.29890265,4.03915789 C5.05274336,4.95536842 3.08686726,8.75452632 4.28814159,11.9023158 C5.28297345,15.1898947 9.31709735,16.9941053 12.4787257,15.6130526 C14.115823,15.032 15.1951858,13.5347368 15.6688142,11.9258947 C13.7925664,11.8888421 11.9158938,11.912 10.039646,11.8606316 C10.0349735,10.7541053 10.0303009,9.65178947 10.0349735,8.54526316 C13.1638938,8.54063158 16.2974867,8.53136842 19.4310796,8.55915789 C19.6235044,11.2703158 19.2199646,14.1717895 17.4418407,16.3477895 C15.0070088,19.4538947 10.5086018,20.3654737 6.84913274,19.1469474 C2.96538053,17.8825263 0.141026549,14.0042105 0.225557522,9.94021053 Z"></path>
                    <path d="M25.5300531,5.75494737 C26.4590442,5.75494737 27.3876106,5.75494737 28.3208496,5.75494737 C28.3259469,6.68042105 28.3348673,7.61052632 28.3399646,8.53557895 C29.2732035,8.54484211 30.2115398,8.54947368 31.1452035,8.55410526 C31.1452035,9.47957895 31.1452035,10.4 31.1452035,11.3254737 C30.2119646,11.3301053 29.2736283,11.3347368 28.3399646,11.3393684 C28.3306195,12.2694737 28.3259469,13.1945263 28.3208496,14.1246316 C27.3876106,14.12 26.4535221,14.1246316 25.5249558,14.1246316 C25.5160354,13.1945263 25.5160354,12.2694737 25.5062655,11.344 C24.5730265,11.3343158 23.6346903,11.3301053 22.7010265,11.3250526 C22.7010265,10.3995789 22.7010265,9.47915789 22.7010265,8.55368421 C23.6346903,8.54905263 24.568354,8.54442105 25.5062655,8.53515789 C25.5109381,7.61052632 25.5202832,6.68042105 25.5300531,5.75494737 Z"></path>
                </g>
            </g>
        </g>
    </g>
</svg>