<?xml version="1.0" encoding="UTF-8" standalone="no"?>
<svg width="48px" height="48px" viewBox="0 0 48 48" version="1.1" xmlns="http://www.w3.org/2000/svg" xmlns:xlink="http://www.w3.org/1999/xlink">
    <!-- Generator: Sketch 50.2 (55047) - http://www.bohemiancoding.com/sketch -->
    <title>ok-for-avatar </title>
    <desc>Created with Sketch.</desc>
    <defs></defs>
    <g id="ok-for-avatar-" stroke="none" stroke-width="1" fill="none" fill-rule="evenodd">
        <g id="if_ok-48" fill-rule="nonzero">
            <circle id="Circle" fill="#D0D7DB" cx="24" cy="24" r="24"></circle>
            <g id="OK_1_" transform="translate(15.000000, 9.000000)" fill="#F2720C">
                <path d="M16,15 C15,15 13,17 9,17 C5,17 3,15 2,15 C0.896,15 0,15.896 0,17 C0,18 0.568,18.48 1,18.734 C2.186,19.427 6,21 6,21 L1.75,26.438 C1.75,26.438 1,27.375 1,28.001 C1,29.105 1.896,30.001 3,30.001 C4.021,30.001 4.484,29.346 4.484,29.346 C4.484,29.346 8.993,23.993 9,24 C9.007,23.993 13.516,29.344 13.516,29.344 C13.516,29.344 13.979,30 15,30 C16.104,30 17,29.104 17,28 C17,27.373 16.25,26.437 16.25,26.437 L12,21 C12,21 15.814,19.427 17,18.734 C17.432,18.48 18,18 18,17 C18,15.896 17.104,15 16,15 Z" id="K_1_"></path>
                <path d="M9,0 C5.134,0 2,3.134 2,7 C2,10.866 5.134,14 9,14 C12.865,14 16,10.866 16,7 C16,3.134 12.865,0 9,0 Z M9,10.5 C7.066,10.5 5.5,8.934 5.5,7 C5.5,5.067 7.066,3.5 9,3.5 C10.932,3.5 12.5,5.067 12.5,7 C12.5,8.934 10.932,10.5 9,10.5 Z" id="O_1_"></path>
            </g>
        </g>
    </g>
</svg>