<?xml version="1.0" encoding="UTF-8" standalone="no"?>
<svg width="48px" height="48px" viewBox="0 0 48 48" version="1.1" xmlns="http://www.w3.org/2000/svg" xmlns:xlink="http://www.w3.org/1999/xlink">
    <!-- Generator: Sketch 50.2 (55047) - http://www.bohemiancoding.com/sketch -->
    <title>vk-for-avatar</title>
    <desc>Created with Sketch.</desc>
    <defs></defs>
    <g id="vk-for-avatar" stroke="none" stroke-width="1" fill="none" fill-rule="evenodd">
        <g id="if_vkontakte-48-copy" fill-rule="nonzero">
            <circle id="Circle" fill="#D0D7DB" cx="24" cy="24" r="24"></circle>
            <path d="M25.0411538,33 C26.0411538,33 26.0411538,31.56 26.0411538,31 C26.0411538,30 27.0411538,29 28.0411538,29 C29.0411538,29 30.7561538,30.715 32.0411538,32 C33.0411538,33 33.0411538,33 34.0411538,33 C35.0411538,33 37.0411538,33 37.0411538,33 C37.0411538,33 39.0411538,32.924 39.0411538,31 C39.0411538,30.375 38.3541538,29.313 36.0411538,27 C34.0411538,25 33.0161538,26.032 36.0411538,22 C37.8831538,19.544 39.2251538,17.319 38.9941538,16.677 C38.7741538,16.064 33.6471538,15.088 33.0411538,16 C31.0411538,19 30.6741538,19.735 30.0411538,21 C29.0411538,23 28.9401538,24 28.0411538,24 C27.1311538,24 27.0411538,22.059 27.0411538,21 C27.0411538,17.694 27.5201538,15.356 26.0411538,15 C26.0411538,15 24.0411538,15 23.0411538,15 C21.4311538,15 20.0411538,16 20.0411538,16 C20.0411538,16 18.8001538,16.968 19.0411538,17 C19.3391538,17.04 21.0411538,16.586 21.0411538,18 C21.0411538,19 21.0411538,20 21.0411538,20 C21.0411538,20 21.0501538,24 20.0411538,24 C19.0411538,24 17.0411538,20 15.0411538,17 C14.2561538,15.823 14.0411538,16 13.0411538,16 C11.9691538,16 11.0421538,16.042 10.0411538,16.042 C9.04115382,16.042 8.91315382,16.679 9.04115382,17 C11.0411538,22 12.4781538,25.141 16.2781538,29.096 C19.7631538,32.726 22.0911538,32.918 24.0411538,33 C24.5411538,33.023 24.0411538,33 25.0411538,33 Z" id="VK_1_" fill="#54769B"></path>
        </g>
    </g>
</svg>