<svg xmlns="http://www.w3.org/2000/svg" xmlns:xlink="http://www.w3.org/1999/xlink" width="30" height="30" viewBox="0 0 30 30">
    <defs>
        <rect id="a" width="600" height="64" rx="4"/>
    </defs>
    <g fill="none" fill-rule="evenodd" transform="translate(-276 -17)">
        <use fill="#FFF" xlink:href="#a"/>
        <rect width="598" height="62" x="1" y="1" stroke="#B6C1C6" stroke-width="2" rx="4"/>
        <rect width="600" height="64" fill="#FFF" opacity=".751" rx="4"/>
        <g transform="translate(279 20)">
            <circle cx="12" cy="12" r="12" fill="#54769B"/>
            <path fill="#FFF" fill-rule="nonzero" d="M12.002 17c.5 0 .5-.7.5-1 0-.5.498-1 .998-1 .499 0 1.347.85 1.996 1.5.5.5.5.5.999.5h1.497s.998-.05.998-1c0-.3-.349-.85-1.497-2-.998-1-1.498-.5 0-2.5.898-1.25 1.597-2.35 1.497-2.65-.1-.3-2.645-.8-2.995-.35-.998 1.5-1.198 1.85-1.497 2.5-.5 1-.55 1.5-.998 1.5-.45 0-.5-.95-.5-1.5 0-1.65.25-2.8-.499-3h-1.497c-.799 0-1.498.5-1.498.5s-.599.5-.499.5c.15 0 .998-.2.998.5v1s0 2-.499 2S8.01 10.5 7.01 9c-.399-.6-.499-.5-.998-.5H4.514c-.499 0-.549.3-.499.5.999 2.5 1.697 4.05 3.594 6.05 1.747 1.8 2.896 1.9 3.894 1.95h.499z"/>
        </g>
    </g>
</svg>
