<?xml version="1.0" encoding="UTF-8" standalone="no"?>
<svg width="48px" height="48px" viewBox="0 0 48 48" version="1.1" xmlns="http://www.w3.org/2000/svg" xmlns:xlink="http://www.w3.org/1999/xlink">
    <!-- Generator: Sketch 50.2 (55047) - http://www.bohemiancoding.com/sketch -->
    <title>twitter-for-avatar</title>
    <desc>Created with Sketch.</desc>
    <defs></defs>
    <g id="twitter-for-avatar" stroke="none" stroke-width="1" fill="none" fill-rule="evenodd">
        <g id="if_twitter-48" fill-rule="nonzero">
            <circle id="Circle" fill="#D0D7DB" cx="24" cy="24" r="24"></circle>
            <path d="M39,15.709 C37.895,16.199 36.244,16.851 35,17 C36.273,16.238 37.539,14.439 38,13 C37.029,13.577 35.913,14.355 34.773,14.773 L34,14 C32.879,12.803 31.77,12 30,12 C26.602,12 24,14.602 24,18 C24,18.398 24.047,18.7 24.11,18.956 L24,19 C18,19 14.034,17.724 11,14 C10.469,14.908 10,15.872 10,17 C10,19.136 11.348,20.894 13,22 C11.991,21.967 10.829,21.458 10,21 C10,23.98 14.186,27.432 17,28 C16,29 12.377,28.074 12,28 C12.784,30.447 15.309,31.949 18,32 C15.895,33.648 13.353,34.51 10.469,34.51 C9.971,34.51 9.482,34.481 9,34.426 C11.723,36.17 15.523,37 19,37 C30.322,37 36,28.133 36,20 C36,19.732 36.008,19.264 36,19 C37.201,18.132 38.172,16.941 39,15.709 Z" id="Brid_1_" fill="#2CA7E0"></path>
        </g>
    </g>
</svg>