<svg xmlns="http://www.w3.org/2000/svg" xmlns:xlink="http://www.w3.org/1999/xlink" width="30" height="30" viewBox="0 0 30 30">
    <defs>
        <rect id="a" width="600" height="64" rx="4"/>
    </defs>
    <g fill="none" fill-rule="evenodd" transform="translate(-419 -17)">
        <use fill="#FFF" xlink:href="#a"/>
        <rect width="598" height="62" x="1" y="1" stroke="#B6C1C6" stroke-width="2" rx="4"/>
        <rect width="600" height="64" fill="#FFF" opacity=".751" rx="4"/>
        <g transform="translate(422 20)">
            <circle cx="12" cy="12" r="12" fill="#DE4C40"/>
            <path fill="#FFF" d="M4.18 13.887c.633 2.477 2.848 4.024 5.142 4.102 3.797.232 6.09-3.173 5.616-6.5h-5.22v1.934l3.005.155c0 .774-1.028 1.702-1.819 2.012-.237.077-.554.155-.87.232a3.455 3.455 0 0 1-3.718-2.863c-.237-1.625.791-3.25 2.61-3.637 1.662-.31 2.057.077 2.927.696l1.503-1.47C12.566 7.387 10.43 7 9.164 7c-3.48.232-5.853 3.715-4.983 6.887zM17.539 14v-1.49H16v-1.02h1.538V10h1v1.49H20v1.02h-1.462V14h-1z"/>
        </g>
    </g>
</svg>
