<svg xmlns="http://www.w3.org/2000/svg" width="54" height="54" viewBox="0 0 54 54">
    <g fill="none" fill-rule="nonzero" transform="translate(3 3)">
        <circle cx="24" cy="24" r="24" fill="#D0D7DB"/>
        <path fill="#262626" d="M33.595 22.834c-1.357 0-2.454-1.162-2.454-2.595 0-1.433 1.098-2.595 2.454-2.595 1.355 0 2.454 1.162 2.454 2.595 0 1.433-1.099 2.595-2.454 2.595zm1.632 2.288l-3.31 2.994c.035.239.06.482.06.73 0 2.55-1.954 4.616-4.364 4.616-2.079 0-3.815-1.538-4.255-3.595l-8.182-2.936a3.7 3.7 0 0 1-2.325.831C10.724 27.762 9 25.939 9 23.69s1.724-4.071 3.851-4.071c1.829 0 3.357 1.348 3.75 3.154l7.905 2.836a4.242 4.242 0 0 1 3.008-1.37l1.184-3.806c-.003-.076-.01-.15-.01-.226 0-2.876 2.205-5.207 4.925-5.207 2.72 0 4.925 2.331 4.925 5.207 0 2.277-1.385 4.208-3.311 4.915zm-19.954-2.826c-.46-.876-1.344-1.47-2.358-1.47-1.49 0-2.697 1.277-2.697 2.852 0 1.574 1.207 2.85 2.697 2.85.275 0 .54-.043.79-.124l-1.28-.46c-1.033-.584-1.422-1.943-.869-3.035.553-1.091 1.839-1.501 2.87-.917l.847.304zm18.324 1.58c1.91 0 3.46-1.638 3.46-3.658 0-1.416-.761-2.645-1.875-3.253a3.297 3.297 0 0 0-1.585-.405c-1.911 0-3.46 1.637-3.46 3.658 0 2.02 1.549 3.658 3.46 3.658zm-3.094 5.366c0-1.7-1.304-3.079-2.912-3.079-.226 0-.444.03-.654.081l1.627.584c1.033.585 1.42 1.944.867 3.034-.553 1.093-1.838 1.503-2.87.918l-1.754-.63c.367 1.258 1.475 2.171 2.784 2.171 1.608 0 2.912-1.378 2.912-3.079z"/>
    </g>
</svg>
