<svg xmlns="http://www.w3.org/2000/svg" width="54" height="54" viewBox="0 0 54 54">
    <g fill="none" fill-rule="evenodd">
        <path fill="#181616" fill-rule="nonzero" d="M27 51c13.255 0 23-10.526 23-23.51 0-12.985-9.745-23.51-23-23.51S4 14.505 4 27.49C4 40.474 13.745 51 27 51z"/>
        <path fill="#D0D7DB" d="M26.998 3C13.746 3 3 12.997 3 27.105 3 38.978 9.875 46.79 19.414 49.978c1.2.22 1.578-.494 1.578-1.133 0-.573.013-2.173 0-4.185-6.675 1.457-8.058-3.175-8.058-3.175-1.09-2.784-2.663-3.526-2.663-3.526-2.179-1.495.163-1.466.163-1.466 2.408.17 3.678 2.485 3.678 2.485 2.14 3.681 5.616 2.617 6.983 2.003.219-1.559.84-2.62 1.525-3.224-5.329-.608-10.931-2.676-10.931-11.913 0-2.632.934-4.783 2.47-6.467-.248-.61-1.073-3.06.235-6.38 0 0 2.015-.648 6.598 2.472 1.915-.535 3.969-.801 6.01-.81 2.039.009 4.091.275 6.009.81 4.583-3.119 6.595-2.472 6.595-2.472 1.308 3.32.485 5.77.239 6.38 1.535 1.684 2.466 3.835 2.466 6.467 0 9.261-5.611 11.299-10.958 11.894.86.746 1.642 2.192 1.642 4.44v6.673c0 .645.388 1.358 1.606 1.124C44.13 46.782 51 38.978 51 27.105 51 13.593 40.254 3 26.998 3z"/>
    </g>
</svg>
