<svg width="20" height="20" viewBox="0 0 20 20" fill="none" xmlns="http://www.w3.org/2000/svg">
    <rect width="20" height="20" rx="10" fill="#EA4C89"/>
    <path d="M10 4.6875C11.0312 4.6875 12.0156 4.96875 12.9062 5.48438C13.7969 6 14.5 6.70312 15.0156 7.59375C15.5312 8.48438 15.8125 9.46875 15.8125 10.5C15.8125 11.5547 15.5312 12.5156 15.0156 13.4062C14.5 14.2969 13.7969 15.0234 12.9062 15.5391C12.0156 16.0547 11.0312 16.3125 10 16.3125C8.94531 16.3125 7.98438 16.0547 7.09375 15.5391C6.20312 15.0234 5.47656 14.2969 4.96094 13.4062C4.44531 12.5156 4.1875 11.5547 4.1875 10.5C4.1875 9.46875 4.44531 8.48438 4.96094 7.59375C5.47656 6.70312 6.20312 6 7.09375 5.48438C7.98438 4.96875 8.94531 4.6875 10 4.6875ZM13.8438 7.35938C13.6562 7.59375 13.4219 7.85156 13.1172 8.10938C12.5078 8.625 11.8281 9.02344 11.0781 9.32812C11.2188 9.65625 11.3594 9.98438 11.5 10.3125C12.2031 10.2188 12.9531 10.2188 13.7969 10.2891C14.2188 10.3359 14.6172 10.4062 14.9688 10.4531C14.9453 9.89062 14.8516 9.32812 14.6641 8.8125C14.4766 8.29688 14.1953 7.80469 13.8438 7.35938ZM13.2812 6.79688C12.6719 6.25781 11.9688 5.88281 11.1953 5.69531C10.3984 5.50781 9.625 5.48438 8.82812 5.67188C9.48438 6.5625 10.1172 7.54688 10.6797 8.57812C11.4297 8.32031 12.0625 7.96875 12.625 7.5C12.9062 7.26562 13.1406 7.03125 13.2812 6.79688ZM7.89062 6.02344C7.1875 6.35156 6.57812 6.82031 6.10938 7.42969C5.61719 8.03906 5.28906 8.74219 5.14844 9.49219C5.57031 9.49219 6.0625 9.46875 6.64844 9.42188C7.72656 9.32812 8.73438 9.16406 9.71875 8.88281C9.15625 7.875 8.54688 6.91406 7.89062 6.02344ZM5.03125 10.5C5.03125 11.1328 5.125 11.7422 5.35938 12.3047C5.59375 12.8672 5.89844 13.3828 6.32031 13.8281C6.74219 13.1016 7.30469 12.4453 8.05469 11.8359C8.85156 11.1797 9.67188 10.7344 10.5391 10.5C10.4219 10.2188 10.2812 9.9375 10.1406 9.65625C9.08594 9.98438 7.96094 10.1953 6.74219 10.2891C6.08594 10.3359 5.5 10.3594 5.03125 10.3594V10.5ZM6.95312 14.4141C7.65625 15 8.47656 15.3516 9.36719 15.4453C10.2578 15.5391 11.125 15.4219 11.9453 15.0703C11.7344 13.875 11.3828 12.6328 10.8906 11.3203C9.92969 11.6484 9.08594 12.1172 8.35938 12.7266C7.70312 13.2891 7.23438 13.8516 6.95312 14.4141ZM12.7656 14.625C13.3281 14.25 13.7969 13.7812 14.1719 13.1953C14.5469 12.6328 14.7812 12 14.8984 11.2969C14.6172 11.2031 14.2656 11.1328 13.8672 11.0859C13.1406 10.9922 12.4609 10.9922 11.8047 11.0859C12.25 12.3516 12.5781 13.5234 12.7656 14.625Z" fill="white"/>
</svg>