<svg width="20" height="20" viewBox="0 0 20 20" fill="none" xmlns="http://www.w3.org/2000/svg">
    <rect width="20" height="20" rx="10" fill="#005FF9"/>
    <g clip-path="url(#clip0)">
        <path fill-rule="evenodd" clip-rule="evenodd" d="M10.0231 4C13.3196 4.0154 16 6.69576 16 10.0077C16 10.4698 15.9538 10.8549 15.8768 11.2401C15.8768 11.2401 15.8306 11.4095 15.8151 11.4865C15.6611 11.9641 15.3992 12.3492 15.0449 12.6264C14.6906 12.8883 14.2593 13.0424 13.828 13.0424C13.7664 13.0424 13.7202 13.0424 13.6739 13.0424C13.0578 12.9961 12.5032 12.6727 12.1797 12.1489C11.6098 12.7343 10.8395 13.0424 10.0231 13.0424C8.34403 13.0424 6.98845 11.6868 6.98845 10.0077C6.98845 8.32863 8.34403 6.97304 10.0231 6.97304C11.7022 6.97304 13.0424 8.32863 13.0424 10.0077V10.9936C13.0424 11.5635 13.4275 11.7946 13.751 11.8254C14.0745 11.8562 14.5058 11.656 14.6598 11.0398C14.7368 10.7009 14.7677 10.362 14.7677 10.0077C14.7677 7.37356 12.6264 5.23235 10.0077 5.23235C7.37356 5.23235 5.23235 7.37356 5.23235 10.0077C5.23235 12.6418 7.37356 14.7831 10.0077 14.7831C10.9166 14.7831 11.81 14.5212 12.5802 14.0282L12.5956 14.0128L13.3967 14.9525L13.3813 14.9679C12.38 15.6457 11.2092 16.0154 10.0077 16.0154C6.69576 16.0154 4 13.3196 4 10.0077C4 6.69576 6.69576 4 10.0077 4H10.0231ZM11.81 10.0077C11.81 11.009 10.9936 11.81 10.0077 11.81C9.00642 11.81 8.20539 10.9936 8.20539 10.0077C8.20539 9.00642 9.02182 8.20539 10.0077 8.20539C10.9936 8.18999 11.81 9.00642 11.81 10.0077Z" fill="white"/>
    </g>
    <defs>
        <clipPath id="clip0">
            <rect width="12" height="12" fill="white" transform="translate(4 4)"/>
        </clipPath>
    </defs>
</svg>