<svg xmlns="http://www.w3.org/2000/svg" width="54" height="54" viewBox="0 0 54 54">
    <g fill="none" fill-rule="nonzero" transform="translate(3 3)">
        <circle cx="24" cy="24" r="24" fill="#D0D7DB"/>
        <g fill="#F48024">
            <path d="M28.79 25.26l-10.175-6 1.282-2.173 10.174 6zM27.962 28.385l-11.407-3.067.654-2.435 11.407 3.066zM27.695 31.765L15.93 30.681l.232-2.512 11.763 1.085zM15.769 32.475h11.813v2.522H15.769z"/>
            <path d="M31.603 38.4s0 .59-.019.59V39h-18.9s-.59 0-.59-.01h-.019V26.7h2.016v10.313h15.496V26.7h2.016v11.7zM25.94 11.454l6.656 9.76-2.084 1.42-6.655-9.76zM33.53 9.002l2.02 11.639-2.484.43-2.02-11.638z"/>
        </g>
    </g>
</svg>
