<svg xmlns="http://www.w3.org/2000/svg" width="54" height="54" viewBox="0 0 54 54">
    <g fill="none" fill-rule="evenodd">
        <path fill="#720E9E" d="M27.23 3.003C40.359 3.003 51 13.645 51 26.771c0 13.127-10.641 23.768-23.768 23.768-13.128 0-23.768-10.64-23.768-23.768 0-13.126 10.64-23.768 23.768-23.768z"/>
        <path fill="#FFF" fill-rule="nonzero" d="M38.113 21.765l.026-.005.787-.876-.039-.003.083-.13H27.94l.426 1.508h3.01l-5.066 4.687c-1.034-1.508-3.457-4.973-5.148-7.573h3.142v-1.07l.043-.307-.043-.006v-.125H12.377v1.508h3.73c1.449 1.196 7.728 8.82 7.957 9.547.092.682.222 4.706-.048 5.01-.325.467-3.723.215-4.321.26l-.023 1.477c1.094.033 4.374-.001 5.48-.001 2.181 0 6-.056 6.538-.013l.067-1.4-4.39-.065c-.092-.634-.193-4.638-.1-5.075.414-1.267 7.149-6.51 7.841-6.708l.652-.147h2.035l.318-.493zm-1.646 10.46l1.908.145 2.224-8.156c-.372-.013-3.745-.315-4.184-.396l.052 8.406zm-.33 1.306l.011 1.992.966.08 1.042.073.306-1.949-1.099-.05-1.225-.146z"/>
    </g>
</svg>
