<svg xmlns="http://www.w3.org/2000/svg" width="54" height="54" viewBox="0 0 54 54">
    <g fill="none" fill-rule="nonzero">
        <path fill="#262626" d="M27 51c13.255 0 24-10.745 24-24S40.255 3 27 3 3 13.745 3 27s10.745 24 24 24z"/>
        <path fill="#FFF" d="M36.826 25.603c-1.357 0-2.455-1.162-2.455-2.595 0-1.433 1.099-2.595 2.455-2.595 1.355 0 2.454 1.162 2.454 2.595 0 1.433-1.1 2.595-2.454 2.595zm1.632 2.289l-3.31 2.993c.035.24.06.482.06.731 0 2.548-1.955 4.615-4.364 4.615-2.08 0-3.815-1.538-4.255-3.595L18.407 29.7a3.7 3.7 0 0 1-2.325.831c-2.127 0-3.851-1.823-3.851-4.072 0-2.248 1.724-4.071 3.85-4.071 1.83 0 3.357 1.348 3.752 3.154l7.903 2.836a4.242 4.242 0 0 1 3.009-1.37l1.184-3.806c-.004-.075-.01-.15-.01-.226 0-2.876 2.205-5.207 4.925-5.207 2.72 0 4.925 2.331 4.925 5.207 0 2.277-1.385 4.208-3.311 4.916zm-19.954-2.827c-.46-.876-1.344-1.47-2.358-1.47-1.49 0-2.697 1.278-2.697 2.852 0 1.574 1.207 2.85 2.697 2.85.275 0 .54-.043.79-.124l-1.281-.46c-1.033-.584-1.421-1.943-.868-3.035.553-1.09 1.838-1.501 2.87-.917l.847.304zm18.324 1.58c1.91 0 3.46-1.637 3.46-3.657 0-1.417-.761-2.646-1.875-3.253a3.297 3.297 0 0 0-1.585-.406c-1.911 0-3.46 1.638-3.46 3.659 0 2.02 1.549 3.657 3.46 3.657zm-3.094 5.367c0-1.7-1.304-3.08-2.912-3.08-.226 0-.444.03-.654.081l1.627.584c1.032.585 1.42 1.944.867 3.034-.553 1.093-1.838 1.503-2.87.918l-1.754-.63c.367 1.258 1.474 2.172 2.784 2.172 1.608 0 2.912-1.38 2.912-3.08z"/>
    </g>
</svg>
