<svg xmlns="http://www.w3.org/2000/svg" width="54" height="54" viewBox="0 0 54 54">
    <g fill="none" fill-rule="nonzero" transform="translate(3 3)">
        <circle cx="24" cy="24" r="24" fill="#D0D7DB"/>
        <path fill="#720E9E" d="M35.2 18.818l.025-.004.77-.858-.037-.003.081-.128h-10.8l.416 1.478h2.947l-4.96 4.589c-1.012-1.477-3.385-4.87-5.04-7.416h3.077V15.43l.042-.301-.042-.006V15H10v1.476h3.652c1.419 1.171 7.567 8.636 7.79 9.349.091.667.22 4.608-.046 4.904-.318.459-3.645.211-4.23.255l-.023 1.447c1.07.032 4.282-.001 5.366-.001 2.135 0 5.875-.055 6.402-.013l.065-1.37-4.298-.064c-.09-.622-.19-4.542-.1-4.97.407-1.24 7.002-6.374 7.68-6.568l.638-.144h1.993l.311-.483zM33.588 29.06l1.868.142 2.177-7.985c-.363-.013-3.666-.309-4.096-.389l.051 8.232zm-.323 1.28l.01 1.95.946.079 1.021.071.3-1.908-1.077-.05-1.2-.142z"/>
    </g>
</svg>
