<svg xmlns="http://www.w3.org/2000/svg" width="54" height="54" viewBox="0 0 54 54">
    <g fill="none" fill-rule="nonzero" transform="translate(3 3)">
        <circle cx="24" cy="24" r="24" fill="#F48024"/>
        <g fill="#FFF">
            <path d="M28.977 24.791l-10.174-6 1.281-2.173 10.174 6zM28.15 27.916l-11.408-3.067.655-2.435 11.407 3.066zM27.882 31.296l-11.763-1.084.231-2.511 11.764 1.084zM15.957 32.006H27.77v2.522H15.957z"/>
            <path d="M31.79 37.931s0 .59-.018.59v.01h-18.9s-.59 0-.59-.01h-.02v-12.29h2.016v10.313h15.497V26.23h2.016v11.7zM26.128 10.985l6.655 9.76-2.083 1.42-6.656-9.759zM33.718 8.533l2.02 11.639-2.485.431-2.02-11.639z"/>
        </g>
    </g>
</svg>
