<svg width="20" height="20" viewBox="0 0 20 20" fill="none" xmlns="http://www.w3.org/2000/svg">
    <rect width="20" height="20" rx="10" fill="#45668E"/>
    <path d="M16.0234 7.26562C15.9766 7.5 15.7891 7.89844 15.4609 8.4375C15.2266 8.83594 14.9453 9.28125 14.6172 9.79688C14.3359 10.2188 14.1719 10.4297 14.1719 10.4297C14.0781 10.5703 14.0312 10.6875 14.0312 10.7578C14.0312 10.8516 14.0781 10.9453 14.1719 11.0391L14.3828 11.2734C15.5078 12.4453 16.1406 13.2422 16.2812 13.6641C16.3281 13.8516 16.3047 14.0156 16.2109 14.1094C16.1172 14.2031 16 14.25 15.8125 14.25H14.4297C14.2422 14.25 14.1016 14.2031 13.9609 14.0859C13.8672 14.0391 13.6797 13.875 13.4453 13.5938C13.2109 13.3125 13 13.0781 12.8125 12.8906C12.1797 12.3047 11.7109 12 11.4297 12C11.2891 12 11.1953 12.0234 11.1484 12.0703C11.1016 12.1172 11.0781 12.2344 11.0781 12.375C11.0547 12.4922 11.0547 12.7266 11.0547 13.1016V13.7109C11.0547 13.8984 11.0078 14.0391 10.9141 14.1094C10.7734 14.2031 10.4922 14.25 10.0703 14.25C9.32031 14.25 8.59375 14.0391 7.84375 13.5938C7.09375 13.1719 6.4375 12.5391 5.875 11.7188C5.33594 11.0156 4.89062 10.2891 4.53906 9.53906C4.25781 8.97656 4.02344 8.46094 3.85938 7.96875C3.74219 7.59375 3.69531 7.3125 3.69531 7.14844C3.69531 6.89062 3.83594 6.75 4.16406 6.75H5.54688C5.71094 6.75 5.82812 6.79688 5.92188 6.86719C6.01562 6.96094 6.08594 7.10156 6.15625 7.28906C6.36719 7.92188 6.625 8.53125 6.95312 9.11719C7.23438 9.67969 7.51562 10.125 7.79688 10.4531C8.07812 10.8047 8.28906 10.9688 8.45312 10.9688C8.54688 10.9688 8.59375 10.9453 8.64062 10.875C8.6875 10.8047 8.71094 10.6641 8.71094 10.4531V8.41406C8.6875 8.17969 8.64062 7.94531 8.54688 7.75781C8.5 7.66406 8.40625 7.54688 8.3125 7.40625C8.19531 7.26562 8.14844 7.17188 8.14844 7.07812C8.14844 6.98438 8.17188 6.91406 8.24219 6.84375C8.3125 6.79688 8.40625 6.75 8.5 6.75H10.6797C10.8203 6.75 10.9141 6.79688 10.9609 6.86719C11.0078 6.96094 11.0547 7.07812 11.0547 7.26562V9.98438C11.0547 10.125 11.0781 10.2422 11.125 10.2891C11.1719 10.3594 11.2188 10.3828 11.2891 10.3828C11.3594 10.3828 11.4531 10.3594 11.5469 10.3125C11.6406 10.2656 11.7578 10.1484 11.9219 9.96094C12.2031 9.63281 12.5078 9.23438 12.8125 8.74219C13 8.41406 13.2109 8.03906 13.3984 7.61719L13.6328 7.14844C13.7266 6.89062 13.9375 6.75 14.2188 6.75H15.6016C15.9766 6.75 16.1172 6.9375 16.0234 7.26562Z" fill="white"/>
</svg>