<svg width="20" height="20" viewBox="0 0 20 20" fill="none" xmlns="http://www.w3.org/2000/svg">
    <rect width="20" height="20" rx="10" fill="#FFCC00"/>
    <path d="M10.5859 11.9062H11.6641V16.5H12.9531V4.5H11.0312C10.375 4.5 9.76562 4.66406 9.25 4.94531C8.73438 5.22656 8.3125 5.64844 8.00781 6.1875C7.67969 6.77344 7.53906 7.47656 7.53906 8.27344C7.53906 9.89062 8.125 10.9922 9.29688 11.5781L7.04688 16.5H8.54688L10.5859 11.9062ZM11.6641 5.57812V10.8281H10.9609C10.3516 10.8281 9.85938 10.6406 9.53125 10.2656C9.10938 9.84375 8.92188 9.1875 8.92188 8.27344C8.92188 7.35938 9.13281 6.65625 9.55469 6.1875C9.90625 5.78906 10.375 5.57812 10.9844 5.57812H11.6641Z" fill="white"/>
</svg>