<svg width="20" height="20" viewBox="0 0 20 20" fill="none" xmlns="http://www.w3.org/2000/svg">
    <rect width="20" height="20" rx="10" fill="#333333"/>
    <path d="M8.07812 13.8047C8.07812 13.8047 8.05469 13.7812 8.03125 13.7578C8.00781 13.7578 7.98438 13.7344 7.9375 13.7344C7.84375 13.7344 7.82031 13.7812 7.82031 13.8281C7.82031 13.8984 7.84375 13.9219 7.9375 13.9219C8.03125 13.9219 8.07812 13.875 8.07812 13.8047ZM7.35156 13.7109C7.35156 13.6641 7.39844 13.6406 7.49219 13.6641C7.5625 13.6875 7.58594 13.7109 7.58594 13.7578C7.58594 13.8047 7.5625 13.8281 7.53906 13.8281C7.49219 13.8516 7.46875 13.8516 7.44531 13.8281C7.39844 13.8281 7.375 13.8047 7.35156 13.7812C7.32812 13.7578 7.32812 13.7344 7.35156 13.7109ZM8.38281 13.6641C8.45312 13.6641 8.5 13.6875 8.5 13.7344C8.5 13.7812 8.47656 13.8281 8.40625 13.8516C8.35938 13.8516 8.33594 13.8516 8.3125 13.8516C8.28906 13.8516 8.26562 13.8047 8.26562 13.7578C8.26562 13.7109 8.28906 13.6875 8.38281 13.6641ZM9.92969 4.6875C10.9844 4.6875 11.9688 4.94531 12.8828 5.4375C13.7734 5.95312 14.5 6.63281 15.0156 7.47656C15.5312 8.36719 15.8125 9.35156 15.8125 10.4062C15.8125 11.7188 15.4375 12.8672 14.7109 13.8984C13.9844 14.9297 13.0469 15.6328 11.875 16.0078C11.7344 16.0547 11.6406 16.0312 11.5703 15.9609C11.5 15.9141 11.4766 15.8203 11.4766 15.7266V13.7578C11.4766 13.2656 11.3359 12.9141 11.0781 12.6797C11.6406 12.6328 12.0859 12.5391 12.3672 12.4453C12.7891 12.3047 13.1406 12.0703 13.375 11.7422C13.6328 11.3438 13.7734 10.7812 13.7734 10.0781C13.7734 9.79688 13.7031 9.53906 13.6094 9.30469C13.5156 9.16406 13.375 8.95312 13.1641 8.71875C13.2109 8.57812 13.2578 8.39062 13.2812 8.15625C13.2812 7.82812 13.2344 7.47656 13.1172 7.125C12.9531 7.07812 12.7422 7.125 12.4609 7.21875C12.2734 7.3125 12.0391 7.40625 11.8047 7.54688L11.5 7.75781C11.0078 7.61719 10.5156 7.54688 10 7.54688C9.48438 7.54688 9.01562 7.61719 8.54688 7.75781L8.24219 7.54688C7.98438 7.40625 7.75 7.3125 7.5625 7.21875C7.28125 7.125 7.07031 7.07812 6.92969 7.125C6.78906 7.47656 6.71875 7.82812 6.76562 8.15625C6.76562 8.39062 6.78906 8.55469 6.85938 8.69531C6.67188 8.92969 6.53125 9.16406 6.4375 9.35156C6.34375 9.53906 6.32031 9.79688 6.32031 10.0781C6.32031 10.7812 6.4375 11.3438 6.69531 11.7188C6.90625 12.0469 7.23438 12.3047 7.67969 12.4453C7.96094 12.5391 8.38281 12.6328 8.94531 12.6797C8.73438 12.8672 8.61719 13.1484 8.57031 13.4766C8.28906 13.6172 8.03125 13.6641 7.79688 13.6172C7.375 13.5938 7.07031 13.3828 6.85938 12.9844C6.76562 12.8203 6.625 12.6797 6.48438 12.5625C6.36719 12.5156 6.25 12.4453 6.13281 12.3984L5.96875 12.375C5.78125 12.375 5.6875 12.4219 5.6875 12.4688C5.6875 12.5156 5.71094 12.5859 5.80469 12.6328L5.92188 12.7266C6.01562 12.7969 6.13281 12.8906 6.25 13.0312C6.34375 13.1484 6.41406 13.2656 6.48438 13.4062L6.57812 13.5938C6.64844 13.8281 6.78906 14.0156 7.02344 14.1328C7.21094 14.25 7.42188 14.3203 7.70312 14.3438C7.89062 14.3672 8.07812 14.3672 8.28906 14.3203L8.54688 14.2969L8.57031 15.7266C8.57031 15.8203 8.52344 15.9141 8.45312 15.9609C8.38281 16.0312 8.28906 16.0547 8.17188 16.0078C6.97656 15.6328 6.01562 14.9297 5.28906 13.8984C4.53906 12.8672 4.1875 11.7188 4.1875 10.4062C4.1875 9.35156 4.42188 8.39062 4.9375 7.5C5.42969 6.63281 6.10938 5.95312 7 5.4375C7.86719 4.94531 8.85156 4.6875 9.92969 4.6875ZM6.46094 12.7734C6.48438 12.75 6.53125 12.75 6.57812 12.7969C6.625 12.8438 6.625 12.8906 6.60156 12.9141C6.55469 12.9609 6.53125 12.9375 6.48438 12.8906C6.4375 12.8438 6.41406 12.8203 6.46094 12.7734ZM6.20312 12.5859C6.22656 12.5625 6.27344 12.5625 6.32031 12.5859C6.36719 12.6094 6.36719 12.6328 6.36719 12.6797C6.34375 12.7266 6.29688 12.7266 6.25 12.6797C6.20312 12.6562 6.17969 12.6328 6.20312 12.5859ZM6.97656 13.4062C6.97656 13.4062 7 13.4062 7.04688 13.4062C7.07031 13.4062 7.09375 13.4297 7.11719 13.4531C7.14062 13.4766 7.16406 13.5 7.16406 13.5234C7.16406 13.5703 7.16406 13.5938 7.16406 13.5938C7.11719 13.6406 7.04688 13.6406 7 13.5703C6.95312 13.5469 6.95312 13.5234 6.95312 13.4766C6.95312 13.4531 6.95312 13.4297 6.97656 13.4062ZM6.69531 13.0781C6.71875 13.0781 6.74219 13.0781 6.76562 13.0781C6.78906 13.0781 6.8125 13.1016 6.83594 13.125C6.88281 13.1953 6.88281 13.2422 6.83594 13.2656C6.8125 13.2891 6.78906 13.2891 6.76562 13.2656C6.74219 13.2656 6.71875 13.2422 6.69531 13.2188C6.64844 13.1484 6.64844 13.1016 6.69531 13.0781Z" fill="white"/>
</svg>