<svg width="20" height="20" viewBox="0 0 20 20" fill="none" xmlns="http://www.w3.org/2000/svg">
    <rect width="20" height="20" rx="10" fill="#DD4B39"/>
    <path d="M11.5469 9.84375H7.30469V11.4141H9.85938C9.8125 11.6719 9.69531 11.9297 9.53125 12.1875C9.32031 12.5391 9.0625 12.7969 8.73438 12.9844C8.3125 13.2188 7.84375 13.3359 7.30469 13.3359C6.78906 13.3359 6.32031 13.2188 5.89844 12.9609C5.47656 12.7266 5.125 12.375 4.89062 11.9297C4.63281 11.5078 4.51562 11.0156 4.51562 10.5C4.51562 9.98438 4.63281 9.51562 4.89062 9.07031C5.125 8.64844 5.47656 8.29688 5.89844 8.03906C6.32031 7.80469 6.78906 7.66406 7.30469 7.66406C8.00781 7.66406 8.61719 7.89844 9.08594 8.34375L10.3047 7.17188C9.46094 6.39844 8.47656 6 7.30469 6C6.48438 6 5.73438 6.21094 5.03125 6.60938C4.32812 7.03125 3.78906 7.57031 3.39062 8.25C2.99219 8.95312 2.80469 9.70312 2.80469 10.5C2.80469 11.3203 2.99219 12.0703 3.39062 12.75C3.78906 13.4531 4.32812 13.9922 5.03125 14.3906C5.73438 14.8125 6.48438 15 7.30469 15C8.14844 15 8.89844 14.8125 9.55469 14.4375C10.2109 14.0625 10.7031 13.5469 11.0781 12.8906C11.4297 12.2344 11.6172 11.4609 11.6172 10.5938C11.6172 10.3594 11.5938 10.125 11.5469 9.84375ZM15.8828 10.0078H17.1953V11.3203H15.8828V12.6328H14.5703V11.3203H13.2812V10.0078H14.5703V8.69531H15.8828V10.0078Z" fill="white"/>
</svg>