<svg width="20" height="20" viewBox="0 0 20 20" fill="none" xmlns="http://www.w3.org/2000/svg">
    <rect width="20" height="20" rx="10" fill="#C13584"/>
    <path d="M10 7.80469C10.4688 7.80469 10.9141 7.94531 11.3359 8.17969C11.7578 8.41406 12.0859 8.74219 12.3203 9.16406C12.5547 9.58594 12.6953 10.0312 12.6953 10.5C12.6953 10.9922 12.5547 11.4375 12.3203 11.8594C12.0859 12.2812 11.7578 12.6094 11.3359 12.8438C10.9141 13.0781 10.4688 13.1953 10 13.1953C9.50781 13.1953 9.0625 13.0781 8.64062 12.8438C8.21875 12.6094 7.89062 12.2812 7.65625 11.8594C7.42188 11.4375 7.30469 10.9922 7.30469 10.5C7.30469 10.0312 7.42188 9.58594 7.65625 9.16406C7.89062 8.74219 8.21875 8.41406 8.64062 8.17969C9.0625 7.94531 9.50781 7.80469 10 7.80469ZM10 12.2578C10.4688 12.2578 10.8906 12.0938 11.2422 11.7422C11.5703 11.4141 11.7578 10.9922 11.7578 10.5C11.7578 10.0312 11.5703 9.60938 11.2422 9.25781C10.8906 8.92969 10.4688 8.74219 10 8.74219C9.50781 8.74219 9.08594 8.92969 8.75781 9.25781C8.40625 9.60938 8.24219 10.0312 8.24219 10.5C8.24219 10.9922 8.40625 11.4141 8.75781 11.7422C9.08594 12.0938 9.50781 12.2578 10 12.2578ZM13.4453 7.6875C13.4453 7.52344 13.375 7.38281 13.2578 7.24219C13.1172 7.125 12.9766 7.05469 12.8125 7.05469C12.625 7.05469 12.4844 7.125 12.3672 7.24219C12.2266 7.38281 12.1797 7.52344 12.1797 7.6875C12.1797 7.875 12.2266 8.01562 12.3672 8.13281C12.4844 8.27344 12.625 8.32031 12.8125 8.32031C12.9766 8.32031 13.1172 8.27344 13.2344 8.13281C13.3516 8.01562 13.4219 7.875 13.4453 7.6875ZM15.2266 8.32031C15.2266 8.76562 15.25 9.49219 15.25 10.5C15.25 11.5312 15.2266 12.2578 15.2031 12.7031C15.1797 13.1484 15.1094 13.5234 15.0156 13.8516C14.875 14.25 14.6406 14.6016 14.3594 14.8828C14.0781 15.1641 13.7266 15.375 13.3516 15.5156C13.0234 15.6328 12.625 15.7031 12.1797 15.7266C11.7344 15.75 11.0078 15.75 10 15.75C8.96875 15.75 8.24219 15.75 7.79688 15.7266C7.35156 15.7031 6.97656 15.6328 6.64844 15.4922C6.25 15.375 5.89844 15.1641 5.61719 14.8828C5.33594 14.6016 5.125 14.25 4.98438 13.8516C4.86719 13.5234 4.79688 13.1484 4.77344 12.7031C4.75 12.2578 4.75 11.5312 4.75 10.5C4.75 9.49219 4.75 8.76562 4.77344 8.32031C4.79688 7.875 4.86719 7.47656 4.98438 7.14844C5.125 6.77344 5.33594 6.42188 5.61719 6.14062C5.89844 5.85938 6.25 5.625 6.64844 5.48438C6.97656 5.39062 7.35156 5.32031 7.79688 5.29688C8.24219 5.27344 8.96875 5.25 10 5.25C11.0078 5.25 11.7344 5.27344 12.1797 5.29688C12.625 5.32031 13.0234 5.39062 13.3516 5.48438C13.7266 5.625 14.0781 5.85938 14.3594 6.14062C14.6406 6.42188 14.875 6.77344 15.0156 7.14844C15.1094 7.47656 15.1797 7.875 15.2266 8.32031ZM14.1016 13.5938C14.1953 13.3359 14.2422 12.9141 14.2891 12.3281C14.2891 12 14.3125 11.5078 14.3125 10.875V10.125C14.3125 9.49219 14.2891 9 14.2891 8.67188C14.2422 8.08594 14.1953 7.66406 14.1016 7.40625C13.9141 6.9375 13.5625 6.58594 13.0938 6.39844C12.8359 6.30469 12.4141 6.25781 11.8281 6.21094C11.4766 6.21094 10.9844 6.1875 10.375 6.1875H9.625C8.99219 6.1875 8.5 6.21094 8.17188 6.21094C7.58594 6.25781 7.16406 6.30469 6.90625 6.39844C6.41406 6.58594 6.08594 6.9375 5.89844 7.40625C5.80469 7.66406 5.73438 8.08594 5.71094 8.67188C5.6875 9.02344 5.6875 9.51562 5.6875 10.125V10.875C5.6875 11.5078 5.6875 12 5.71094 12.3281C5.73438 12.9141 5.80469 13.3359 5.89844 13.5938C6.08594 14.0859 6.4375 14.4141 6.90625 14.6016C7.16406 14.6953 7.58594 14.7656 8.17188 14.7891C8.5 14.8125 8.99219 14.8125 9.625 14.8125H10.375C11.0078 14.8125 11.5 14.8125 11.8281 14.7891C12.4141 14.7656 12.8359 14.6953 13.0938 14.6016C13.5625 14.4141 13.9141 14.0625 14.1016 13.5938Z" fill="white"/>
</svg>