<svg width="20" height="20" viewBox="0 0 20 20" fill="none" xmlns="http://www.w3.org/2000/svg">
    <rect width="20" height="20" rx="10" fill="#ED812B"/>
    <path d="M12.6953 12.3281C13.1172 12.0469 13.375 11.8359 13.4922 11.6719C13.6328 11.4844 13.6328 11.2266 13.5156 10.9453C13.3984 10.7578 13.2344 10.6172 13.0469 10.5703C12.7656 10.5234 12.5078 10.5938 12.2266 10.8047L11.9453 10.9922C11.7109 11.1328 11.4531 11.2266 11.1953 11.3203C10.7969 11.4375 10.3984 11.4844 10 11.4844C9.57812 11.4844 9.17969 11.4375 8.80469 11.3203C8.52344 11.2266 8.28906 11.1328 8.05469 10.9922L7.77344 10.8047C7.49219 10.5938 7.21094 10.5234 6.97656 10.5703C6.74219 10.6172 6.60156 10.7578 6.50781 10.9453C6.36719 11.2266 6.36719 11.4844 6.50781 11.6719C6.60156 11.8359 6.88281 12.0469 7.30469 12.3281C7.79688 12.6562 8.5 12.8672 9.4375 12.9609L7.16406 15.2344C6.92969 15.4453 6.88281 15.6797 6.97656 15.9375C7.07031 16.1953 7.23438 16.3594 7.51562 16.4531C7.77344 16.5469 8.00781 16.5 8.21875 16.2891L10 14.5078L11.8047 16.3125C11.9922 16.5234 12.2266 16.5703 12.4844 16.4766C12.7422 16.3828 12.9297 16.1953 13.0234 15.9375C13.1172 15.6797 13.0469 15.4453 12.8594 15.2344L10.5859 12.9609C11.4766 12.8672 12.1797 12.6562 12.6953 12.3281ZM6.95312 7.54688C6.95312 8.10938 7.07031 8.60156 7.35156 9.07031C7.63281 9.53906 8.00781 9.89062 8.47656 10.1719C8.94531 10.4531 9.4375 10.5703 10 10.5703C10.5391 10.5703 11.0547 10.4531 11.5234 10.1719C11.9922 9.89062 12.3438 9.53906 12.625 9.07031C12.9062 8.60156 13.0469 8.10938 13.0469 7.54688C13.0469 6.98438 12.9062 6.49219 12.625 6.02344C12.3438 5.55469 11.9922 5.20312 11.5234 4.92188C11.0547 4.64062 10.5391 4.5 10 4.5C9.4375 4.5 8.94531 4.64062 8.47656 4.92188C8.00781 5.20312 7.63281 5.55469 7.35156 6.02344C7.07031 6.49219 6.95312 6.98438 6.95312 7.54688ZM8.5 7.54688C8.5 7.125 8.64062 6.77344 8.94531 6.49219C9.22656 6.21094 9.57812 6.04688 10 6.04688C10.3984 6.04688 10.75 6.21094 11.0547 6.49219C11.3359 6.77344 11.5 7.125 11.5 7.54688C11.5 7.96875 11.3359 8.32031 11.0547 8.60156C10.75 8.88281 10.3984 9.02344 10 9.02344C9.57812 9.02344 9.22656 8.88281 8.94531 8.60156C8.64062 8.32031 8.5 7.96875 8.5 7.54688Z" fill="white"/>
</svg>