<svg width="20" height="20" viewBox="0 0 20 20" fill="none" xmlns="http://www.w3.org/2000/svg">
    <rect width="20" height="20" rx="10" fill="#333333"/>
    <path d="M16.7812 9.75C16.7812 8.54688 16.4531 7.39844 15.8516 6.35938C15.25 5.32031 14.4297 4.5 13.3906 3.89844C12.3516 3.29688 11.2031 2.96875 10 2.96875C8.79688 2.96875 7.70312 3.26953 6.71875 3.81641C5.73438 4.36328 4.91406 5.12891 4.28516 6.05859C3.65625 7.01562 3.30078 8.05469 3.21875 9.20312L6.85547 10.707C7.21094 10.4883 7.62109 10.3789 8.05859 10.3789L9.67188 8.02734V8C9.67188 7.28906 9.91797 6.6875 10.4102 6.19531C10.9023 5.70312 11.5039 5.45703 12.2148 5.45703C12.9258 5.45703 13.5273 5.70312 14.0195 6.19531C14.5117 6.6875 14.7852 7.28906 14.7852 8C14.7852 8.71094 14.5117 9.33984 14.0195 9.83203C13.5 10.3516 12.8711 10.5977 12.1602 10.5703L9.86328 12.2109C9.86328 12.7578 9.69922 13.25 9.31641 13.6328C8.93359 14.0156 8.46875 14.207 7.94922 14.207C7.45703 14.207 7.04688 14.0703 6.71875 13.7695C6.36328 13.4961 6.14453 13.1133 6.0625 12.6758L3.46484 11.6094C3.71094 12.5391 4.14844 13.3867 4.80469 14.1523C5.43359 14.918 6.19922 15.4922 7.10156 15.9023C8.00391 16.3398 8.96094 16.5312 10 16.5312C11.2031 16.5312 12.3516 16.2305 13.3906 15.6289C14.4297 15.0273 15.25 14.1797 15.8516 13.1406C16.4531 12.1016 16.7812 10.9805 16.7812 9.75ZM7.48438 13.25C7.75781 13.3594 8.00391 13.3594 8.27734 13.25C8.55078 13.1406 8.74219 12.9492 8.85156 12.6758C8.96094 12.4023 8.96094 12.1562 8.85156 11.8828C8.74219 11.6094 8.55078 11.418 8.30469 11.3086L7.42969 10.9531C7.78516 10.8164 8.14062 10.8164 8.49609 10.9805C8.85156 11.1445 9.09766 11.3906 9.26172 11.7461C9.42578 12.1289 9.42578 12.4844 9.26172 12.8398C9.09766 13.2227 8.85156 13.4688 8.49609 13.6328C8.11328 13.7969 7.75781 13.7969 7.40234 13.6328C7.04688 13.4961 6.80078 13.25 6.63672 12.9219L7.48438 13.25ZM12.2422 9.69531C12.6797 9.69531 13.0898 9.53125 13.418 9.20312C13.7461 8.875 13.9375 8.49219 13.9375 8C13.9375 7.53516 13.7461 7.125 13.418 6.79688C13.0898 6.46875 12.6797 6.30469 12.2148 6.30469C11.75 6.30469 11.3398 6.46875 11.0117 6.79688C10.6836 7.125 10.5195 7.53516 10.5195 8C10.5195 8.49219 10.6836 8.875 11.0117 9.20312C11.3398 9.53125 11.75 9.69531 12.2422 9.69531ZM12.2422 9.28516C11.8594 9.28516 11.5586 9.17578 11.3125 8.90234C11.0664 8.65625 10.957 8.35547 10.957 8C10.957 7.67188 11.0664 7.37109 11.3125 7.09766C11.5586 6.85156 11.8594 6.71484 12.2148 6.71484C12.5703 6.71484 12.8711 6.85156 13.1445 7.09766C13.3906 7.37109 13.5273 7.67188 13.5273 8C13.5273 8.35547 13.3906 8.65625 13.1445 8.90234C12.8711 9.17578 12.5703 9.28516 12.2422 9.28516Z" fill="white"/>
</svg>